<?xml version="1.0" encoding="UTF-8"?>
<svg version="1.1" xmlns="http://www.w3.org/2000/svg" width="249" height="203">
<path d="M0 0 C82.17 0 164.34 0 249 0 C249 66.99 249 133.98 249 203 C166.83 203 84.66 203 0 203 C0 136.01 0 69.02 0 0 Z " fill="#FDFDFD" transform="translate(0,0)"/>
<path d="M0 0 C0.66 0 1.32 0 2 0 C2.98850692 3.01785613 3.96407193 6.03974967 4.9375 9.0625 C5.35418945 10.33383789 5.35418945 10.33383789 5.77929688 11.63085938 C7.31866841 16.43444044 8.46212651 20.98211697 9 26 C8.11957031 25.94199219 7.23914062 25.88398437 6.33203125 25.82421875 C-0.76606488 25.43996761 -0.76606488 25.43996761 -7.25 27.875 C-9.35724605 31.63793938 -9.68277772 34.62706205 -9.859375 38.890625 C-10 41 -10 41 -11 42 C-11.07488042 43.62340751 -11.08321532 45.24999849 -11.0625 46.875 C-11.05476563 47.85984375 -11.04703125 48.8446875 -11.0390625 49.859375 C-11.02617188 50.89578125 -11.01328125 51.9321875 -11 53 C-10.97460678 55.04161504 -10.95353437 57.08329 -10.9375 59.125 C-10.92589844 60.03507812 -10.91429688 60.94515625 -10.90234375 61.8828125 C-11 64 -11 64 -12 65 C-16.76348916 65 -19.24322269 64.21297923 -22.75 60.9375 C-26.96905584 56.30127909 -28.57591683 51.809551 -29.5 45.6875 C-28.76929301 40.29853595 -26.44025883 35.81951119 -24 31 C-19.74154273 31.79902823 -17.92454 33.83833513 -15 37 C-14.67 37.33 -14.34 37.66 -14 38 C-13.94832473 35.57732914 -13.94832473 35.57732914 -15 33 C-18.47307328 31.13016255 -18.47307328 31.13016255 -22 30 C-20.43353372 24.85161402 -17.20957755 21.29547648 -13.8125 17.25 C-12.63453784 15.82885298 -11.45744831 14.4069822 -10.28125 12.984375 C-9.71535156 12.30181641 -9.14945313 11.61925781 -8.56640625 10.91601562 C-6.03560002 7.82035364 -3.64126062 4.62459669 -1.26953125 1.40625 C-0.85058594 0.9421875 -0.43164062 0.478125 0 0 Z " fill="#316D2F" transform="translate(56,68)"/>
<path d="M0 0 C2.875 0.375 2.875 0.375 3.875 1.375 C3.91563832 3.04117115 3.917721 4.70888095 3.875 6.375 C5.855 5.715 7.835 5.055 9.875 4.375 C13.47024781 21.83763222 13.47024781 21.83763222 8.43359375 31.09765625 C5.98971986 34.66852963 3.69821855 36.32684721 -0.125 38.375 C-3.0625 38.6875 -3.0625 38.6875 -5.125 38.375 C-6.3513757 35.92224859 -6.23915314 34.3244219 -6.22265625 31.5859375 C-6.21943359 30.64492187 -6.21621094 29.70390625 -6.21289062 28.734375 C-6.20451172 27.74953125 -6.19613281 26.7646875 -6.1875 25.75 C-6.18298828 24.75742188 -6.17847656 23.76484375 -6.17382812 22.7421875 C-6.16202145 20.2863984 -6.145554 17.83072896 -6.125 15.375 C-3.485 15.375 -0.845 15.375 1.875 15.375 C1.875 14.715 1.875 14.055 1.875 13.375 C-0.765 13.375 -3.405 13.375 -6.125 13.375 C-6.33653631 9.21478592 -6.46625965 6.28502574 -5 2.375 C-3.125 0.375 -3.125 0.375 0 0 Z " fill="#7FC640" transform="translate(57.125,94.625)"/>
<path d="M0 0 C0.66 0 1.32 0 2 0 C2.20753906 0.54269531 2.41507813 1.08539063 2.62890625 1.64453125 C3.09103516 2.71767578 3.09103516 2.71767578 3.5625 3.8125 C3.85253906 4.52019531 4.14257812 5.22789063 4.44140625 5.95703125 C6.7674181 9.00591395 9.43106987 9.67987065 13 11 C13.02887512 14.64581687 13.04675585 18.29160463 13.0625 21.9375 C13.07087891 22.97841797 13.07925781 24.01933594 13.08789062 25.09179688 C13.09272461 26.57583008 13.09272461 26.57583008 13.09765625 28.08984375 C13.10551147 29.46450806 13.10551147 29.46450806 13.11352539 30.86694336 C13 33 13 33 12 34 C7.23651084 34 4.75677731 33.21297923 1.25 29.9375 C-2.96905584 25.30127909 -4.57591683 20.809551 -5.5 14.6875 C-4.76929301 9.29853595 -2.44025883 4.81951119 0 0 Z " fill="#316D2F" transform="translate(32,99)"/>
<path d="M0 0 C2.875 1.4375 2.875 1.4375 5 4 C5.71555259 7.14496906 5.70993955 9.85433287 5 13 C2.29190436 16.36460367 0.71104337 16.91267888 -3.5625 17.4375 C-8.74271229 16.77820025 -8.74271229 16.77820025 -11 14 C-11.90481741 11.28554777 -12.25036984 8.85421621 -12 6 C-8.74238589 0.72041851 -6.13812058 -0.60177653 0 0 Z " fill="#F3F3F3" transform="translate(113,81)"/>
<path d="M0 0 C6.6984824 -0.47657187 10.78236388 -0.41492287 16 4 C17 5 17 5 17.375 8.25 C17 12 17 12 15.1875 14.9375 C10.55316252 17.93618896 6.37184048 17.42334995 1 17 C1.01160156 15.94039062 1.02320313 14.88078125 1.03515625 13.7890625 C1.04453476 12.40104342 1.05363489 11.01302245 1.0625 9.625 C1.07087891 8.92632812 1.07925781 8.22765625 1.08789062 7.5078125 C1.1835442 3.62704624 1.1835442 3.62704624 0 0 Z " fill="#F6F6F6" transform="translate(167,81)"/>
<path d="M0 0 C0.66 0 1.32 0 2 0 C2.98850692 3.01785613 3.96407193 6.03974967 4.9375 9.0625 C5.21529297 9.91005859 5.49308594 10.75761719 5.77929688 11.63085938 C7.31866841 16.43444044 8.46212651 20.98211697 9 26 C4.71 25.67 0.42 25.34 -4 25 C-3.79503906 23.78183594 -3.59007812 22.56367187 -3.37890625 21.30859375 C-3.10672691 19.6849032 -2.83459396 18.06120486 -2.5625 16.4375 C-2.36043945 15.23770508 -2.36043945 15.23770508 -2.15429688 14.01367188 C-1.37378171 9.34961786 -0.64764008 4.68438698 0 0 Z " fill="#7EC540" transform="translate(56,68)"/>
<path d="M0 0 C1.43655854 -0.08131463 2.8744483 -0.13933559 4.3125 -0.1875 C5.51326172 -0.23970703 5.51326172 -0.23970703 6.73828125 -0.29296875 C9 0 9 0 10.83203125 1.2734375 C12.60183585 3.88967039 11.52418354 5.98045575 10.99609375 8.92578125 C11.00107706 11.57191754 11.74059108 12.5100316 13.4375 14.5 C14.283125 15.325 15.12875 16.15 16 17 C14.25 16.8125 14.25 16.8125 12 16 C10.66666667 14.33333333 9.33333333 12.66666667 8 11 C5.87053397 10.13034494 5.87053397 10.13034494 4 10 C4.33 12.31 4.66 14.62 5 17 C4.01 17 3.02 17 2 17 C2 11.72 2 6.44 2 1 C1.34 0.67 0.68 0.34 0 0 Z " fill="#848586" transform="translate(205,81)"/>
<path d="M0 0 C1.65 0 3.3 0 5 0 C5 4.29 5 8.58 5 13 C6.65 13.33 8.3 13.66 10 14 C11.33901792 12.88873341 11.33901792 12.88873341 11.09765625 10.05859375 C11.08605469 8.86363281 11.07445312 7.66867188 11.0625 6.4375 C11.05347656 5.23996094 11.04445312 4.04242188 11.03515625 2.80859375 C11.02355469 1.88175781 11.01195312 0.95492187 11 0 C12.32 0.33 13.64 0.66 15 1 C14.91245449 2.75091019 14.80426627 4.50079551 14.6875 6.25 C14.62949219 7.22453125 14.57148438 8.1990625 14.51171875 9.203125 C13.94482241 12.30158134 13.19141902 13.761622 11 16 C8.0625 16.5625 8.0625 16.5625 5 16 C2.07688409 13.70890915 1.14500739 11.86760721 0.53515625 8.21875 C0.27719748 5.47661291 0.09639917 2.75219622 0 0 Z " fill="#8D8F90" transform="translate(176,109)"/>
<path d="M0 0 C3.42009706 1.14003235 4.28869442 2.22170198 6.5625 4.9375 C8.33130568 7.03343963 10.05994888 9.05994888 12 11 C12.33 7.37 12.66 3.74 13 0 C13.66 0 14.32 0 15 0 C15 5.28 15 10.56 15 16 C14.34 16 13.68 16 13 16 C11.4140625 14.390625 11.4140625 14.390625 9.625 12.25 C7.17313888 9.33368942 4.71236597 6.71236597 2 4 C2 7.96 2 11.92 2 16 C1.01 15.67 0.02 15.34 -1 15 C-0.67 10.05 -0.34 5.1 0 0 Z " fill="#777879" transform="translate(146,82)"/>
<path d="M0 0 C0.66 0 1.32 0 2 0 C2.33 4.62 2.66 9.24 3 14 C8.76887492 14.5547002 8.76887492 14.5547002 12 12 C12.5941721 7.29250342 12.5941721 7.29250342 10.625 3.1875 C10.08875 2.795625 9.5525 2.40375 9 2 C8.34 1.34 7.68 0.68 7 0 C9.59094622 0.35012787 11.5774211 0.73770965 13.8125 2.125 C15.7587998 5.19810495 15.48843966 7.45881244 15 11 C13.1875 13.9375 13.1875 13.9375 10 16 C6.22852276 16.41316745 2.81489198 16.22981277 -1 16 C-0.67 10.72 -0.34 5.44 0 0 Z " fill="#666869" transform="translate(169,82)"/>
<path d="M0 0 C4.29 0 8.58 0 13 0 C12.67 0.99 12.34 1.98 12 3 C10.68 2.67 9.36 2.34 8 2 C8.33 6.62 8.66 11.24 9 16 C7.35 16 5.7 16 4 16 C4.33 11.38 4.66 6.76 5 2 C3.35 2 1.7 2 0 2 C0 1.34 0 0.68 0 0 Z " fill="#9FA1A1" transform="translate(195,109)"/>
<path d="M0 0 C2.97 0 5.94 0 9 0 C8.67 0.66 8.34 1.32 8 2 C5.03 1.505 5.03 1.505 2 1 C2 3.31 2 5.62 2 8 C3.98 8 5.96 8 8 8 C7.67 8.66 7.34 9.32 7 10 C5.35 9.67 3.7 9.34 2 9 C2.33 12.3 2.66 15.6 3 19 C1.68 18.67 0.36 18.34 -1 18 C-0.505 9.09 -0.505 9.09 0 0 Z " fill="#636566" transform="translate(87,79)"/>
<path d="M0 0 C4.29 0 8.58 0 13 0 C13 0.66 13 1.32 13 2 C11.35 2 9.7 2 8 2 C8 6.29 8 10.58 8 15 C7.34 15 6.68 15 6 15 C6 10.71 6 6.42 6 2 C4.02 2 2.04 2 0 2 C0 1.34 0 0.68 0 0 Z " fill="#8E8F90" transform="translate(132,109)"/>
<path d="M0 0 C2.64 0 5.28 0 8 0 C7.67 0.66 7.34 1.32 7 2 C5.35 1.67 3.7 1.34 2 1 C2 2.98 2 4.96 2 7 C3.65 7 5.3 7 7 7 C7 7.33 7 7.66 7 8 C5.35 8 3.7 8 2 8 C2.33 9.98 2.66 11.96 3 14 C4.65 14.33 6.3 14.66 8 15 C8 15.33 8 15.66 8 16 C5.03 16 2.06 16 -1 16 C-0.67 10.72 -0.34 5.44 0 0 Z " fill="#777979" transform="translate(191,82)"/>
<path d="M0 0 C3.53600465 1.91135386 5.78972846 3.62642766 8 7 C8.66 6.01 9.32 5.02 10 4 C10.66 3.67 11.32 3.34 12 3 C12 5.31 12 7.62 12 10 C7.96115115 10.46963359 6.45878506 10.35683282 3.1875 7.8125 C1.0117623 5.01512296 0.29802105 3.47691229 0 0 Z " fill="#84BE5A" transform="translate(34,99)"/>
<path d="M0 0 C1.4540625 0.0309375 1.4540625 0.0309375 2.9375 0.0625 C2.6075 1.0525 2.2775 2.0425 1.9375 3.0625 C0.6175 2.7325 -0.7025 2.4025 -2.0625 2.0625 C-1.85873822 3.96834196 -1.85873822 3.96834196 -1.0625 6.0625 C-0.0415625 6.7740625 -0.0415625 6.7740625 1 7.5 C2.9375 9.0625 2.9375 9.0625 3.3125 11.625 C2.9375 14.0625 2.9375 14.0625 0.9375 16.0625 C-2.1875 16.1875 -2.1875 16.1875 -5.0625 16.0625 C-5.0625 15.4025 -5.0625 14.7425 -5.0625 14.0625 C-3.4125 14.0625 -1.7625 14.0625 -0.0625 14.0625 C-0.0625 12.7425 -0.0625 11.4225 -0.0625 10.0625 C-0.908125 9.2375 -1.75375 8.4125 -2.625 7.5625 C-3.429375 6.7375 -4.23375 5.9125 -5.0625 5.0625 C-4.83917125 1.04258257 -4.00430867 0.08172059 0 0 Z " fill="#7E7F80" transform="translate(124.0625,108.9375)"/>
<path d="M0 0 C2.64 0 5.28 0 8 0 C7.67 0.66 7.34 1.32 7 2 C5.68 1.67 4.36 1.34 3 1 C3 2.98 3 4.96 3 7 C4.65 7 6.3 7 8 7 C7.67 7.66 7.34 8.32 7 9 C5.68 8.67 4.36 8.34 3 8 C3 10.31 3 12.62 3 15 C2.34 15 1.68 15 1 15 C0.67 10.05 0.34 5.1 0 0 Z " fill="#7C7E7F" transform="translate(213,109)"/>
<path d="M0 0 C1.65 0 3.3 0 5 0 C4.88529863 1.75070517 4.75780972 3.50057536 4.625 5.25 C4.55539063 6.22453125 4.48578125 7.1990625 4.4140625 8.203125 C4.01534751 10.89633189 3.36492937 12.66963279 2 15 C1.67 15 1.34 15 1 15 C0.67 10.05 0.34 5.1 0 0 Z " fill="#A6A7A8" transform="translate(135,81)"/>
<path d="M0 0 C0.66 0.33 1.32 0.66 2 1 C1.505 1.37125 1.01 1.7425 0.5 2.125 C-1.25764487 3.98842933 -1.25764487 3.98842933 -1.375 6.9375 C-0.95505383 10.36706039 -0.56078044 11.6952976 2 14 C5.10197397 14.80946422 5.10197397 14.80946422 8 15 C8 15.33 8 15.66 8 16 C4.56292439 16.19829282 1.82932158 16.34918804 -1.375 15 C-3.84721744 11.95727084 -4.35480117 8.88016595 -4 5 C-2.0625 2 -2.0625 2 0 0 Z " fill="#6C6E6F" transform="translate(105,82)"/>
<path d="M0 0 C2.475 0.495 2.475 0.495 5 1 C5 2.65 5 4.3 5 6 C3.35 6.33 1.7 6.66 0 7 C0 4.69 0 2.38 0 0 Z " fill="#F6F6F6" transform="translate(210,83)"/>
<path d="M0 0 C4.10303158 0.46625359 7.16746984 0.84063943 10 4 C10.25 7.1875 10.25 7.1875 10 10 C6.66666667 6.66666667 3.33333333 3.33333333 0 0 Z " fill="#EDF4EA" transform="translate(33,98)"/>
<path d="M0 0 C1.98 0.99 1.98 0.99 4 2 C4.08096803 3.45742463 4.13917774 4.91612807 4.1875 6.375 C4.22230469 7.18710938 4.25710937 7.99921875 4.29296875 8.8359375 C4.19628906 9.55007812 4.09960938 10.26421875 4 11 C3.01 11.66 2.02 12.32 1 13 C1.01160156 12.31292969 1.02320312 11.62585938 1.03515625 10.91796875 C1.04417969 10.01691406 1.05320312 9.11585937 1.0625 8.1875 C1.07410156 7.29417969 1.08570312 6.40085937 1.09765625 5.48046875 C1.11009967 2.86586209 1.11009967 2.86586209 0 0 Z " fill="#67696A" transform="translate(114,83)"/>
<path d="M0 0 C0.99 0.33 1.98 0.66 3 1 C2.67 1.66 2.34 2.32 2 3 C1.92907158 5.2072923 1.91584975 7.41667452 1.9375 9.625 C1.95103516 11.40777344 1.95103516 11.40777344 1.96484375 13.2265625 C1.97644531 14.14179687 1.98804688 15.05703125 2 16 C1.01 15.67 0.02 15.34 -1 15 C-0.67 10.05 -0.34 5.1 0 0 Z " fill="#686A6B" transform="translate(146,82)"/>
</svg>
