<?xml version="1.0" encoding="UTF-8"?>
<svg version="1.1" xmlns="http://www.w3.org/2000/svg" width="225" height="225">
<path d="M0 0 C74.25 0 148.5 0 225 0 C225 74.25 225 148.5 225 225 C150.75 225 76.5 225 0 225 C0 150.75 0 76.5 0 0 Z " fill="#FEFEFE" transform="translate(0,0)"/>
<path d="M0 0 C1.18851563 0.10183594 2.37703125 0.20367187 3.6015625 0.30859375 C4.51679688 0.39238281 5.43203125 0.47617188 6.375 0.5625 C6.46241124 4.12484428 6.51552896 7.68691108 6.5625 11.25 C6.58763672 12.25740234 6.61277344 13.26480469 6.63867188 14.30273438 C6.73191643 23.7204348 6.73191643 23.7204348 3.375 27.5625 C-0.3623856 30.0540904 -2.19831583 30.02043285 -6.625 29.5625 C-9.5625 27.75 -9.5625 27.75 -11.625 25.5625 C-11.625 24.5725 -11.625 23.5825 -11.625 22.5625 C-10.903125 22.706875 -10.18125 22.85125 -9.4375 23 C-8.509375 23.185625 -7.58125 23.37125 -6.625 23.5625 C-5.75875 23.789375 -4.8925 24.01625 -4 24.25 C-1.36140217 24.86235478 -1.36140217 24.86235478 1.375 22.5625 C2.09882467 20.50324861 2.09882467 20.50324861 2.375 18.5625 C1.385 19.2225 0.395 19.8825 -0.625 20.5625 C-4.5223724 21.07085292 -6.13056726 20.89212183 -9.4375 18.6875 C-12.37117393 15.83764533 -12.81041445 14.22978434 -12.9375 10.25 C-12.90913514 6.72708401 -12.69150675 5.66891081 -10.75 2.5625 C-7.05666161 -0.91358319 -4.95338031 -0.43706297 0 0 Z " fill="#0F7EC2" transform="translate(134.625,67.4375)"/>
<path d="M0 0 C3.625 1.5 3.625 1.5 6 3 C5.34 4.32 4.68 5.64 4 7 C3.13375 6.67 2.2675 6.34 1.375 6 C-3.01534334 4.69915753 -6.31284272 4.57821068 -10.75 5.6875 C-13.11604131 6.84694192 -13.11604131 6.84694192 -14.375 9.0625 C-15.26532258 13.24701611 -15.12821877 16.86817893 -14 21 C-12.1866503 24.2301177 -12.1866503 24.2301177 -9 26 C-4.79742567 26.77159564 -1.30678145 26.68606026 2.5 24.6875 C4.23115403 22.96307007 4.23115403 22.96307007 5 20 C1.7 19.67 -1.6 19.34 -5 19 C-5 17.35 -5 15.7 -5 14 C0.28 14 5.56 14 11 14 C10.23705722 24.22343324 10.23705722 24.22343324 7 28 C1.77301187 31.79212864 -1.58176622 32.71313709 -8 32 C-13.46398835 29.9643965 -17.47108352 26.76661078 -20.3125 21.625 C-21.58681619 16.75942909 -21.68148798 12.79151775 -19.3125 8.3125 C-14.44468395 0.60368099 -8.59161331 -0.7882214 0 0 Z " fill="#1983C4" transform="translate(63,56)"/>
<path d="M0 0 C0.99 0 1.98 0 3 0 C3 0.66 3 1.32 3 2 C3.99 1.34 4.98 0.68 6 0 C9.09478718 -0.39932738 11.04032979 -0.64490868 14 0 C17.07835765 2.56529804 18.54374194 4.11513062 19.4765625 7.96875 C19.74989027 11.70902474 19.14619836 14.40480236 17 17.5 C13.98530096 20.0122492 13.46294035 20.39361194 9.8125 20.5 C6 20 6 20 4 18 C3.67 21.3 3.34 24.6 3 28 C2.01 28 1.02 28 0 28 C0 18.76 0 9.52 0 0 Z " fill="#787A7B" transform="translate(145,149)"/>
<path d="M0 0 C4.42610196 0.36279524 6.39743509 1.54792364 9.8125 4.3125 C11.40939041 7.50628082 11.18598957 10.83771315 10.8125 14.3125 C9.54765069 17.2216534 8.55799933 18.77265566 6 20.625 C2.99010008 21.57096855 0.96051964 21.75322275 -2.1875 21.3125 C-5.11233867 19.48702064 -7.62179205 17.44391589 -9.1875 14.3125 C-9.69448467 9.15815588 -9.69448467 9.15815588 -9.1875 6.3125 C-6.75 3.375 -6.75 3.375 -4.1875 1.3125 C-3.1875 0.3125 -3.1875 0.3125 0 0 Z " fill="#E8442F" transform="translate(85.1875,66.6875)"/>
<path d="M0 0 C3.67123639 0.01977327 4.15668193 0.29756585 7.1875 2.8125 C8.2084375 4.0809375 8.2084375 4.0809375 9.25 5.375 C9.58 5.705 9.91 6.035 10.25 6.375 C10.94087003 13.16855532 10.94087003 13.16855532 9.203125 16.203125 C7.41998077 18.36387625 5.77253812 20.11373094 3.25 21.375 C-1.38554388 21.78704834 -4.05416098 21.24954146 -7.75 18.375 C-10.07465134 15.38616256 -10.21810806 12.07809225 -10.1484375 8.34375 C-9.47577975 5.02002933 -7.29922275 3.42681343 -4.75 1.375 C-3.75 0.375 -3.75 0.375 0 0 Z " fill="#F8B015" transform="translate(108.75,66.625)"/>
<path d="M0 0 C4.33764633 2.36598891 4.33764633 2.36598891 6 5 C7.15390567 10.02773185 6.78240438 13.73805744 4.0625 18.125 C-0.07144905 20.65598921 -3.27493702 21.02533012 -8 20 C-11.0625 18.125 -11.0625 18.125 -13 15 C-13.87725118 10.88366754 -14.20764109 6.9135158 -11.890625 3.2421875 C-8.19736897 -0.23265016 -4.85244389 -0.86650784 0 0 Z " fill="#777A7B" transform="translate(70,108)"/>
<path d="M0 0 C1.12535156 -0.04640625 1.12535156 -0.04640625 2.2734375 -0.09375 C5.9302477 0.8295642 7.37704436 2.51978561 9.625 5.5 C9.99271245 8.3387401 10.11130804 10.51820151 9.9375 13.3125 C9.91494141 14.00537109 9.89238281 14.69824219 9.86914062 15.41210938 C9.81062661 17.10901573 9.7209548 18.80479861 9.625 20.5 C8.84125 20.314375 8.0575 20.12875 7.25 19.9375 C4.65410225 19.24037734 4.65410225 19.24037734 2.625 20.5 C-3.55535883 20.94948064 -3.55535883 20.94948064 -6.3125 19.4375 C-8.00835287 16.34506242 -7.80560657 13.94485259 -7.375 10.5 C-5.875 8.5625 -5.875 8.5625 -3.375 7.5 C-0.65440731 7.27155329 1.8841654 7.36295827 4.625 7.5 C4.625 6.84 4.625 6.18 4.625 5.5 C-0.42509595 4.56213918 -0.42509595 4.56213918 -5.375 5.5 C-6.035 4.84 -6.695 4.18 -7.375 3.5 C-5.05653298 0.7237465 -3.6087638 0.0492664 0 0 Z " fill="#838687" transform="translate(83.375,148.5)"/>
<path d="M0 0 C2.27751344 1.47368516 4.02007 3.11435238 6 5 C5.80859375 6.859375 5.80859375 6.859375 5 9 C2.78515625 10.265625 2.78515625 10.265625 0.0625 11.25 C-0.83339844 11.58515625 -1.72929687 11.9203125 -2.65234375 12.265625 C-5 13 -5 13 -7 13 C-7 13.66 -7 14.32 -7 15 C-5.1128125 15.0309375 -5.1128125 15.0309375 -3.1875 15.0625 C-2.47980469 15.07410156 -1.77210938 15.08570312 -1.04296875 15.09765625 C1.20305461 15.08263217 1.20305461 15.08263217 4 14 C4.66 14.33 5.32 14.66 6 15 C4.63016497 18.16115776 4.0109362 18.9927092 1 21 C-3.62362084 21.50256748 -6.3198911 20.86230692 -10 18 C-12.34113009 14.98997559 -12.41216607 11.72258458 -12.328125 7.96875 C-11.80947233 4.85683396 -10.21445226 3.14932131 -8 1 C-5.09704195 -0.45147903 -3.22738221 -0.37239025 0 0 Z " fill="#E73E28" transform="translate(164,67)"/>
<path d="M0 0 C3 1.875 3 1.875 5 4 C5 4.66 5 5.32 5 6 C3.1875 6.6875 3.1875 6.6875 1 7 C0.54625 6.505 0.0925 6.01 -0.375 5.5 C-0.91125 5.005 -1.4475 4.51 -2 4 C-5.14921909 4.23283149 -5.14921909 4.23283149 -8 5 C-8 6.32 -8 7.64 -8 9 C-7.15695313 9.39832031 -6.31390625 9.79664063 -5.4453125 10.20703125 C-3.80175781 11.00173828 -3.80175781 11.00173828 -2.125 11.8125 C-1.03445312 12.33457031 0.05609375 12.85664063 1.1796875 13.39453125 C4 15 4 15 6 18 C5.67195326 24.12353923 5.67195326 24.12353923 3.5625 26.875 C0.47409536 29.09865134 -2.15018745 29.39013946 -5.95703125 29.35546875 C-9.43226621 28.75079116 -10.96928943 26.72876732 -13 24 C-13 23.01 -13 22.02 -13 21 C-12.01 20.67 -11.02 20.34 -10 20 C-9.443125 20.825 -8.88625 21.65 -8.3125 22.5 C-6.25868748 25.23228759 -6.25868748 25.23228759 -3.375 25.4375 C-0.82100147 25.19920496 -0.82100147 25.19920496 1 23 C1.05789859 20.47390076 1.05789859 20.47390076 0 18 C-2.18028505 16.42157672 -2.18028505 16.42157672 -4.875 15.375 C-10.95207283 12.73510539 -10.95207283 12.73510539 -13 10 C-12.93466459 6.34121692 -12.76975083 3.95449102 -10.4375 1.0625 C-6.94617267 -0.45936063 -3.70319932 -0.68197532 0 0 Z " fill="#7C7F80" transform="translate(55,140)"/>
<path d="M0 0 C0.680625 -0.00515625 1.36125 -0.0103125 2.0625 -0.015625 C4 0.25 4 0.25 7 2.25 C6.67 3.24 6.34 4.23 6 5.25 C3.03 4.92 0.06 4.59 -3 4.25 C-2.67 5.24 -2.34 6.23 -2 7.25 C-0.19922327 8.1965911 -0.19922327 8.1965911 1.9375 8.8125 C4.72850228 9.70906516 5.87774645 10.12774645 8 12.25 C8.375 14.6875 8.375 14.6875 8 17.25 C6.22711704 19.39223357 4.82971673 20.11058039 2.09375 20.5703125 C-1.65080949 20.77989605 -3.43103439 20.67672421 -6.5 18.375 C-8 16.25 -8 16.25 -8 14.25 C-7.278125 14.394375 -6.55625 14.53875 -5.8125 14.6875 C-4.4203125 14.9659375 -4.4203125 14.9659375 -3 15.25 C-1.6696875 15.5284375 -1.6696875 15.5284375 -0.3125 15.8125 C1.93526987 16.31196389 1.93526987 16.31196389 4 16.25 C3.67 15.26 3.34 14.27 3 13.25 C1.23144489 12.33902006 1.23144489 12.33902006 -0.875 11.75 C-3.99739192 10.78217372 -5.94750097 9.85459529 -8 7.25 C-7.875 4.6875 -7.875 4.6875 -7 2.25 C-4.00261059 0.25174039 -3.36652492 -0.02550398 0 0 Z " fill="#7C7F80" transform="translate(174,148.75)"/>
<path d="M0 0 C0 0.99 0 1.98 0 3 C-1.65 3 -3.3 3 -5 3 C-5 4.65 -5 6.3 -5 8 C-3.35 8.33 -1.7 8.66 0 9 C0 9.99 0 10.98 0 12 C-1.65 12 -3.3 12 -5 12 C-5 17.28 -5 22.56 -5 28 C-6.32 28 -7.64 28 -9 28 C-9 22.72 -9 17.44 -9 12 C-10.32 12 -11.64 12 -13 12 C-13 10.68 -13 9.36 -13 8 C-11.68 8 -10.36 8 -9 8 C-9.0825 7.071875 -9.165 6.14375 -9.25 5.1875 C-9 2 -9 2 -7.3125 0.0625 C-4.43497994 -1.25960381 -2.97788882 -0.90991047 0 0 Z " fill="#848687" transform="translate(56,100)"/>
<path d="M0 0 C1.32 0 2.64 0 4 0 C4.06058594 1.07121094 4.12117187 2.14242187 4.18359375 3.24609375 C4.26798537 4.64324391 4.35263406 6.04037857 4.4375 7.4375 C4.47681641 8.14455078 4.51613281 8.85160156 4.55664062 9.58007812 C4.47624438 13.08690419 4.47624438 13.08690419 6 16 C8.45792029 16.33343551 8.45792029 16.33343551 11 16 C13.34770643 12.47844036 13.37669614 10.49228157 13.625 6.3125 C13.69976562 5.13300781 13.77453125 3.95351562 13.8515625 2.73828125 C13.90054688 1.83464844 13.94953125 0.93101562 14 0 C14.99 0 15.98 0 17 0 C17 6.27 17 12.54 17 19 C15.35 19 13.7 19 12 19 C11.67 19.33 11.34 19.66 11 20 C4.64220183 20.47094801 4.64220183 20.47094801 2.125 18.625 C-0.40957157 14.96395217 -0.11410657 11.67819422 -0.0625 7.375 C-0.05798828 6.66859375 -0.05347656 5.9621875 -0.04882812 5.234375 C-0.03703875 3.48954725 -0.01910324 1.744763 0 0 Z " fill="#828485" transform="translate(124,149)"/>
<path d="M0 0 C1.32 0 2.64 0 4 0 C4 1.98 4 3.96 4 6 C5.65 6 7.3 6 9 6 C9 7.32 9 8.64 9 10 C7.35 10 5.7 10 4 10 C4 13.96 4 17.92 4 22 C5.32 22 6.64 22 8 22 C8.33 23.32 8.66 24.64 9 26 C3.57446809 26.36170213 3.57446809 26.36170213 1.3125 24.9375 C-0.70439276 21.96018212 -0.28491047 19.35174705 -0.1875 15.8125 C-0.16042969 14.54019531 -0.13335937 13.26789063 -0.10546875 11.95703125 C-0.07066406 10.98121094 -0.03585938 10.00539062 0 9 C-0.99 9 -1.98 9 -3 9 C-3 8.01 -3 7.02 -3 6 C-2.01 6 -1.02 6 0 6 C0 4.02 0 2.04 0 0 Z " fill="#838687" transform="translate(65,143)"/>
<path d="M0 0 C2.5 0.5625 2.5 0.5625 4.8125 2.75 C6.64956543 5.81177572 7.213937 7.0820571 6.5 10.5625 C4.9375 12.9375 4.9375 12.9375 2.5 14.5625 C-1.125 14.5 -1.125 14.5 -4.5 13.5625 C-6.82749345 10.07125983 -7.00299316 8.67027749 -6.5 4.5625 C-4.52113939 1.77743692 -3.34067767 0.75165248 0 0 Z " fill="#F8F8F8" transform="translate(66.5,110.4375)"/>
<path d="M0 0 C1.32 0 2.64 0 4 0 C4 1.98 4 3.96 4 6 C5.32 6 6.64 6 8 6 C8 6.99 8 7.98 8 9 C6.68 9 5.36 9 4 9 C4 13.29 4 17.58 4 22 C5.32 22 6.64 22 8 22 C8.33 23.32 8.66 24.64 9 26 C3.57446809 26.36170213 3.57446809 26.36170213 1.3125 24.9375 C-0.70439276 21.96018212 -0.28491047 19.35174705 -0.1875 15.8125 C-0.16042969 14.54019531 -0.13335937 13.26789063 -0.10546875 11.95703125 C-0.07066406 10.98121094 -0.03585938 10.00539062 0 9 C-0.99 9 -1.98 9 -3 9 C-3 8.01 -3 7.02 -3 6 C-2.01 6 -1.02 6 0 6 C0 4.02 0 2.04 0 0 Z " fill="#7E8182" transform="translate(113,143)"/>
<path d="M0 0 C2.4375 0.4375 2.4375 0.4375 4.25 1.4375 C6.14770228 4.63363015 5.98753751 7.820815 5.4375 11.4375 C4.25 13.4375 4.25 13.4375 2.4375 14.4375 C0 14.9375 0 14.9375 -2.5625 14.4375 C-5.12662763 12.01197386 -6.38337126 10.35553481 -7.0625 6.875 C-6.21400654 2.7385944 -4.16092482 0.7104018 0 0 Z " fill="#F9F9F9" transform="translate(154.5625,151.5625)"/>
<path d="M0 0 C2.27751344 1.47368516 4.02007 3.11435238 6 5 C5.80859375 6.859375 5.80859375 6.859375 5 9 C2.78515625 10.265625 2.78515625 10.265625 0.0625 11.25 C-0.83339844 11.58515625 -1.72929687 11.9203125 -2.65234375 12.265625 C-5 13 -5 13 -7 13 C-7.33 12.01 -7.66 11.02 -8 10 C-2.375 7 -2.375 7 1 7 C0.67 6.34 0.34 5.68 0 5 C-2.33165034 4.66501699 -2.33165034 4.66501699 -5 5 C-7.31377147 6.89584109 -7.31377147 6.89584109 -9 9 C-9.33 8.67 -9.66 8.34 -10 8 C-10.33 9.65 -10.66 11.3 -11 13 C-11.33 13 -11.66 13 -12 13 C-12.32470459 8.86001651 -12.4304413 6.66000999 -10.125 3.125 C-6.80605027 -0.19394973 -4.65258252 -0.53683644 0 0 Z " fill="#E73C25" transform="translate(164,67)"/>
<path d="M0 0 C1.32 0 2.64 0 4 0 C4 9.9 4 19.8 4 30 C2.68 30 1.36 30 0 30 C0 20.1 0 10.2 0 0 Z " fill="#009F40" transform="translate(145,57)"/>
<path d="M0 0 C2.9375 0.875 2.9375 0.875 4.9375 3.875 C5.29134949 6.70579592 5.3295891 8.24330089 3.8125 10.6875 C1.03746189 12.44502414 -0.85179745 12.34322746 -4.0625 11.875 C-6 10.1875 -6 10.1875 -7.0625 7.875 C-6.92427181 5.04132207 -6.38805369 3.38903215 -4.875 1 C-3.0625 -0.125 -3.0625 -0.125 0 0 Z " fill="#FDF4F3" transform="translate(87.0625,71.125)"/>
<path d="M0 0 C2.4375 0.75 2.4375 0.75 4.4375 2.75 C4.6875 6.25 4.6875 6.25 4.4375 9.75 C2.4375 11.75 2.4375 11.75 -1.0625 12.0625 C-2.795 11.9078125 -2.795 11.9078125 -4.5625 11.75 C-6.5625 8.75 -6.5625 8.75 -6.375 5.1875 C-5.4068221 1.09136272 -4.38870004 -0.42816586 0 0 Z " fill="#F3F8FB" transform="translate(132.5625,71.25)"/>
<path d="M0 0 C2.475 0.495 2.475 0.495 5 1 C7.34165499 0.73128549 9.67884289 0.40961596 12 0 C11.875 1.875 11.875 1.875 11 4 C9.02 4.66 7.04 5.32 5 6 C4.67 10.62 4.34 15.24 4 20 C2.68 20 1.36 20 0 20 C0 13.4 0 6.8 0 0 Z " fill="#818485" transform="translate(79,108)"/>
<path d="M0 0 C2.4375 0.75 2.4375 0.75 4.4375 2.75 C4.6875 6.25 4.6875 6.25 4.4375 9.75 C2.4375 11.75 2.4375 11.75 -0.5 12.0625 C-3.5625 11.75 -3.5625 11.75 -5.5 10.6875 C-7.22915678 7.53433176 -6.4215699 5.12491745 -5.5625 1.75 C-2.5625 -0.25 -2.5625 -0.25 0 0 Z " fill="#FEFBF5" transform="translate(109.5625,71.25)"/>
<path d="M0 0 C0.99 0 1.98 0 3 0 C3.33 0.66 3.66 1.32 4 2 C4.66 1.34 5.32 0.68 6 0 C8.625 -0.125 8.625 -0.125 11 0 C11 1.32 11 2.64 11 4 C9.02 4.66 7.04 5.32 5 6 C4.67 10.62 4.34 15.24 4 20 C2.68 20 1.36 20 0 20 C0 13.4 0 6.8 0 0 Z " fill="#828485" transform="translate(96,149)"/>
<path d="M0 0 C0.8125 1.6875 0.8125 1.6875 1 4 C-1.00974223 6.94762193 -2.60408323 8.68251712 -6.1640625 9.4921875 C-10.68040533 9.74896953 -12.46026793 9.4405976 -16.0625 6.5 C-16.701875 5.675 -17.34125 4.85 -18 4 C-17.01 3.01 -16.02 2.02 -15 1 C-14.34 2.32 -13.68 3.64 -13 5 C-8.40416886 5.49629779 -8.40416886 5.49629779 -4.19921875 3.88671875 C-2.74400545 2.65378147 -1.36520843 1.33191067 0 0 Z " fill="#7E8081" transform="translate(75,119)"/>
<path d="M0 0 C0.99 0 1.98 0 3 0 C3 6.27 3 12.54 3 19 C-4.875 19 -4.875 19 -8 17 C-7.030625 16.71125 -6.06125 16.4225 -5.0625 16.125 C-1.89335797 15.35785318 -1.89335797 15.35785318 -1 13 C-0.77049681 10.795636 -0.58924067 8.58607827 -0.4375 6.375 C-0.31181641 4.59222656 -0.31181641 4.59222656 -0.18359375 2.7734375 C-0.12300781 1.85820312 -0.06242188 0.94296875 0 0 Z " fill="#747778" transform="translate(138,149)"/>
<path d="M0 0 C-0.99 0.495 -0.99 0.495 -2 1 C-2 1.66 -2 2.32 -2 3 C-3.98 3.66 -5.96 4.32 -8 5 C-7.80528889 6.94999129 -7.80528889 6.94999129 -7 9 C-5.0162233 10.28436734 -5.0162233 10.28436734 -3 11 C-3.33 11.66 -3.66 12.32 -4 13 C-6.70313576 13.21917317 -8.43958382 13.32851983 -10.8125 11.9375 C-12.69021039 8.87386726 -12.43729494 6.49835955 -12 3 C-8.86890852 -1.0443265 -4.68531267 -0.23426563 0 0 Z " fill="#76797A" transform="translate(88,156)"/>
<path d="M0 0 C0.5878125 1.670625 0.5878125 1.670625 1.1875 3.375 C2.42482967 6.31960666 2.73606497 6.85882545 5.6875 8.4375 C6.450625 8.623125 7.21375 8.80875 8 9 C7 11 7 11 4.25 12 C1 12 1 12 -1.875 9.375 C-3.96305255 6.05868125 -4.55663017 4.78508515 -4 1 C-2 0 -2 0 0 0 Z " fill="#E73A22" transform="translate(80,75)"/>
<path d="M0 0 C3 0.1875 3 0.1875 5 1.1875 C4.6875 3.0625 4.6875 3.0625 4 5.1875 C1 7.1875 1 7.1875 -1.6875 6.8125 C-2.450625 6.60625 -3.21375 6.4 -4 6.1875 C-4.625 4.3125 -4.625 4.3125 -5 2.1875 C-3 0.1875 -3 0.1875 0 0 Z " fill="#F3F4F4" transform="translate(84,158.8125)"/>
<path d="M0 0 C2.73229014 0.38469067 4.26284706 1.32081052 6.1640625 3.3046875 C5.8340625 4.2946875 5.5040625 5.2846875 5.1640625 6.3046875 C4.4421875 5.9746875 3.7203125 5.6446875 2.9765625 5.3046875 C-1.07582146 3.86383987 -3.77621243 3.95144581 -7.8359375 5.3046875 C-8.4959375 4.6446875 -9.1559375 3.9846875 -9.8359375 3.3046875 C-6.83579033 -0.31849343 -4.48032045 -0.1313449 0 0 Z " fill="#797C7D" transform="translate(85.8359375,148.6953125)"/>
<path d="M0 0 C0.763125 0.20625 1.52625 0.4125 2.3125 0.625 C2.3125 1.615 2.3125 2.605 2.3125 3.625 C0.6625 3.625 -0.9875 3.625 -2.6875 3.625 C-2.6875 5.275 -2.6875 6.925 -2.6875 8.625 C-1.3675 8.955 -0.0475 9.285 1.3125 9.625 C-0.3375 9.625 -1.9875 9.625 -3.6875 9.625 C-4.0175 7.975 -4.3475 6.325 -4.6875 4.625 C-5.6775 5.12 -5.6775 5.12 -6.6875 5.625 C-6.375 3.75 -6.375 3.75 -5.6875 1.625 C-2.6875 -0.375 -2.6875 -0.375 0 0 Z " fill="#898C8D" transform="translate(53.6875,99.375)"/>
<path d="M0 0 C-1.36983503 3.16115776 -1.9890638 3.9927092 -5 6 C-8.1875 6.125 -8.1875 6.125 -11 6 C-11.33 5.34 -11.66 4.68 -12 4 C-10.02 3.67 -8.04 3.34 -6 3 C-7.32 2.34 -8.64 1.68 -10 1 C-3.71428571 -1.42857143 -3.71428571 -1.42857143 0 0 Z " fill="#E84A34" transform="translate(170,82)"/>
<path d="M0 0 C1.32 1.32 2.64 2.64 4 4 C2.83242263 7.32310483 1.85051143 9.83361132 -1 12 C-1.99 12 -2.98 12 -4 12 C-3.71125 11.319375 -3.4225 10.63875 -3.125 9.9375 C-1.87402645 6.67106907 -0.92552045 3.37153877 0 0 Z " fill="#818485" transform="translate(160,157)"/>
<path d="M0 0 C0.33 1.32 0.66 2.64 1 4 C-2.3 4 -5.6 4 -9 4 C-9.33 3.01 -9.66 2.02 -10 1 C-6.1496895 -1.56687367 -4.41430237 -0.83288724 0 0 Z " fill="#F4F4F4" transform="translate(88,153)"/>
<path d="M0 0 C1.8871875 0.061875 1.8871875 0.061875 3.8125 0.125 C2.8225 0.62 2.8225 0.62 1.8125 1.125 C1.8125 1.785 1.8125 2.445 1.8125 3.125 C-1.1575 3.785 -4.1275 4.445 -7.1875 5.125 C-7.1875 4.135 -7.1875 3.145 -7.1875 2.125 C-4.09861478 0.06574319 -3.47814073 -0.1140374 0 0 Z " fill="#7C7F80" transform="translate(84.1875,155.875)"/>
<path d="M0 0 C1.2065625 0.0309375 1.2065625 0.0309375 2.4375 0.0625 C2.7675 1.0525 3.0975 2.0425 3.4375 3.0625 C-1.0175 4.5475 -1.0175 4.5475 -5.5625 6.0625 C-3.26136364 0.07954545 -3.26136364 0.07954545 0 0 Z " fill="#FAE1DF" transform="translate(161.5625,70.9375)"/>
<path d="M0 0 C4.67692308 1.47692308 4.67692308 1.47692308 6.3125 4.125 C6.539375 4.74375 6.76625 5.3625 7 6 C5.68 6.33 4.36 6.66 3 7 C1.68 5.35 0.36 3.7 -1 2 C-0.67 1.34 -0.34 0.68 0 0 Z " fill="#808384" transform="translate(53,140)"/>
<path d="M0 0 C1.485 0.99 1.485 0.99 3 2 C3 2.66 3 3.32 3 4 C4.65 4.33 6.3 4.66 8 5 C8 5.33 8 5.66 8 6 C1.25 6.125 1.25 6.125 -1 5 C-0.67 3.35 -0.34 1.7 0 0 Z " fill="#7B7D7E" transform="translate(127,163)"/>
<path d="M0 0 C0.763125 0.0825 1.52625 0.165 2.3125 0.25 C2.3125 1.57 2.3125 2.89 2.3125 4.25 C-0.3275 4.25 -2.9675 4.25 -5.6875 4.25 C-3.34903846 0.31153846 -3.34903846 0.31153846 0 0 Z " fill="#828485" transform="translate(104.6875,148.75)"/>
<path d="M0 0 C0.53625 0.37125 1.0725 0.7425 1.625 1.125 C0.635 1.455 -0.355 1.785 -1.375 2.125 C-1.705 2.785 -2.035 3.445 -2.375 4.125 C-4.355 3.465 -6.335 2.805 -8.375 2.125 C-8.375 1.795 -8.375 1.465 -8.375 1.125 C-2.95961538 -1.09038462 -2.95961538 -1.09038462 0 0 Z " fill="#EA5B4A" transform="translate(168.375,81.875)"/>
</svg>
