<?xml version="1.0" encoding="UTF-8"?>
<!DOCTYPE svg PUBLIC "-//W3C//DTD SVG 1.1//EN" "http://www.w3.org/Graphics/SVG/1.1/DTD/svg11.dtd">
<svg xmlns="http://www.w3.org/2000/svg" version="1.1" width="981px" height="981px" style="shape-rendering:geometricPrecision; text-rendering:geometricPrecision; image-rendering:optimizeQuality; fill-rule:evenodd; clip-rule:evenodd" xmlns:xlink="http://www.w3.org/1999/xlink">
<g><path style="opacity:1" fill="#fefefe" d="M -0.5,-0.5 C 326.5,-0.5 653.5,-0.5 980.5,-0.5C 980.5,326.5 980.5,653.5 980.5,980.5C 653.5,980.5 326.5,980.5 -0.5,980.5C -0.5,653.5 -0.5,326.5 -0.5,-0.5 Z"/></g>
<g><path style="opacity:1" fill="#514bb6" d="M 492.5,347.5 C 483.482,347.448 474.482,347.782 465.5,348.5C 470.757,347.025 476.257,346.358 482,346.5C 485.683,346.501 489.183,346.835 492.5,347.5 Z"/></g>
<g><path style="opacity:1" fill="#1a10c8" d="M 492.5,347.5 C 497.862,347.884 502.862,349.217 507.5,351.5C 499.418,350.065 491.251,349.398 483,349.5C 474.055,349.444 465.221,350.111 456.5,351.5C 459.189,349.883 462.189,348.883 465.5,348.5C 474.482,347.782 483.482,347.448 492.5,347.5 Z"/></g>
<g><path style="opacity:1" fill="#d1d2f6" d="M 516.5,353.5 C 527.131,352.814 535.464,356.814 541.5,365.5C 537.371,361.712 532.704,358.712 527.5,356.5C 523.858,355.393 520.191,354.393 516.5,353.5 Z"/></g>
<g><path style="opacity:1" fill="#1e15b8" d="M 507.5,351.5 C 510.261,352.92 513.261,353.587 516.5,353.5C 520.191,354.393 523.858,355.393 527.5,356.5C 522.126,356.477 516.793,355.977 511.5,355C 509.456,354.502 508.122,353.335 507.5,351.5 Z"/></g>
<g><path style="opacity:1" fill="#221aad" d="M 527.5,356.5 C 532.704,358.712 537.371,361.712 541.5,365.5C 542.833,365.5 543.5,366.167 543.5,367.5C 541.692,367.509 540.025,367.009 538.5,366C 535.063,362.325 531.396,359.158 527.5,356.5 Z"/></g>
<g><path style="opacity:1" fill="#3d31af" d="M 455.5,351.5 C 453.861,353.231 452.194,355.065 450.5,357C 444.019,358.7 437.686,360.533 431.5,362.5C 439.615,359.134 447.615,355.467 455.5,351.5 Z"/></g>
<g><path style="opacity:1" fill="#574ebb" d="M 431.5,362.5 C 429.461,364.533 427.128,366.199 424.5,367.5C 425.948,364.736 428.281,363.069 431.5,362.5 Z"/></g>
<g><path style="opacity:1" fill="#3223b8" d="M 424.5,367.5 C 422.777,371.554 419.777,374.221 415.5,375.5C 417.469,371.681 420.469,369.014 424.5,367.5 Z"/></g>
<g><path style="opacity:1" fill="#3a2bb4" d="M 415.5,375.5 C 415.306,378.33 414.639,380.996 413.5,383.5C 412.5,383.5 411.5,383.5 410.5,383.5C 411.383,380.296 413.05,377.629 415.5,375.5 Z"/></g>
<g><path style="opacity:1" fill="#2419b3" d="M 553.5,371.5 C 559.704,374.041 564.704,378.041 568.5,383.5C 564.869,382.392 561.869,380.226 559.5,377C 556.353,376.351 554.353,374.518 553.5,371.5 Z"/></g>
<g><path style="opacity:1" fill="#3325b5" d="M 568.5,383.5 C 571.958,386.996 574.792,390.996 577,395.5C 577.49,396.793 577.657,398.127 577.5,399.5C 573.403,394.971 570.403,389.638 568.5,383.5 Z"/></g>
<g><path style="opacity:1" fill="#3e30b5" d="M 578.5,401.5 C 582.229,405.33 584.229,409.997 584.5,415.5C 581.927,411.127 579.927,406.46 578.5,401.5 Z"/></g>
<g><path style="opacity:1" fill="#2c20b6" d="M 409.5,383.5 C 405.405,390.024 401.572,396.69 398,403.5C 395.559,413.423 396.059,423.089 399.5,432.5C 399.308,434.577 398.808,436.577 398,438.5C 394.754,440.479 391.754,442.812 389,445.5C 387.371,449.104 385.538,452.437 383.5,455.5C 378.456,457.775 373.122,458.775 367.5,458.5C 371.575,456.571 375.908,455.071 380.5,454C 384.612,446.887 390.112,441.053 397,436.5C 395.858,429.599 395.025,422.599 394.5,415.5C 395.197,402.775 400.197,392.108 409.5,383.5 Z"/></g>
<g><path style="opacity:1" fill="#2a1fb0" d="M 584.5,415.5 C 585.935,418.55 586.602,421.883 586.5,425.5C 585.994,429.513 585.828,433.513 586,437.5C 587.852,439.957 589.686,442.291 591.5,444.5C 588.9,443.081 586.4,441.415 584,439.5C 584.223,431.525 584.39,423.525 584.5,415.5 Z"/></g>
<g><path style="opacity:1" fill="#0603f4" d="M 507.5,351.5 C 508.122,353.335 509.456,354.502 511.5,355C 516.793,355.977 522.126,356.477 527.5,356.5C 531.396,359.158 535.063,362.325 538.5,366C 540.025,367.009 541.692,367.509 543.5,367.5C 547.327,367.752 550.66,369.085 553.5,371.5C 554.353,374.518 556.353,376.351 559.5,377C 561.869,380.226 564.869,382.392 568.5,383.5C 570.403,389.638 573.403,394.971 577.5,399.5C 578.338,399.842 578.672,400.508 578.5,401.5C 579.927,406.46 581.927,411.127 584.5,415.5C 584.39,423.525 584.223,431.525 584,439.5C 586.4,441.415 588.9,443.081 591.5,444.5C 593.482,448.156 595.482,451.823 597.5,455.5C 603.536,456.556 609.202,458.556 614.5,461.5C 616.843,466.151 619.843,470.151 623.5,473.5C 624.446,480.007 625.446,486.507 626.5,493C 626.569,495.907 625.569,498.24 623.5,500C 613.807,501.388 604.474,500.388 595.5,497C 588.842,496.5 582.175,496.334 575.5,496.5C 563.007,495.34 550.34,495.173 537.5,496C 533.939,497.232 530.606,498.732 527.5,500.5C 523.521,501.631 519.854,503.464 516.5,506C 514.908,509.53 513.241,513.03 511.5,516.5C 511.5,516.833 511.5,517.167 511.5,517.5C 508.404,516.907 506.071,517.907 504.5,520.5C 492.729,526.155 481.396,525.489 470.5,518.5C 469.167,515.5 467.833,512.5 466.5,509.5C 465.5,509.5 464.5,509.5 463.5,509.5C 463.5,509.167 463.5,508.833 463.5,508.5C 462.118,505.606 460.118,503.106 457.5,501C 454.173,500.39 450.839,499.89 447.5,499.5C 447.53,498.503 447.03,497.836 446,497.5C 444.189,496.922 442.355,496.422 440.5,496C 428.505,495.5 416.505,495.333 404.5,495.5C 399.838,495.962 395.171,496.462 390.5,497C 387.896,497.39 385.562,498.224 383.5,499.5C 383.158,500.338 382.492,500.672 381.5,500.5C 374.851,501.38 368.184,501.546 361.5,501C 358.338,499.635 355.671,497.802 353.5,495.5C 353.5,490.833 353.5,486.167 353.5,481.5C 353.328,480.508 353.662,479.842 354.5,479.5C 356.008,477.819 357.008,475.819 357.5,473.5C 358.887,470.947 360.72,468.614 363,466.5C 363.483,465.552 363.649,464.552 363.5,463.5C 364.08,461.251 365.413,459.585 367.5,458.5C 373.122,458.775 378.456,457.775 383.5,455.5C 385.538,452.437 387.371,449.104 389,445.5C 391.754,442.812 394.754,440.479 398,438.5C 398.808,436.577 399.308,434.577 399.5,432.5C 396.059,423.089 395.559,413.423 398,403.5C 401.572,396.69 405.405,390.024 409.5,383.5C 409.833,383.5 410.167,383.5 410.5,383.5C 411.5,383.5 412.5,383.5 413.5,383.5C 414.639,380.996 415.306,378.33 415.5,375.5C 419.777,374.221 422.777,371.554 424.5,367.5C 427.128,366.199 429.461,364.533 431.5,362.5C 437.686,360.533 444.019,358.7 450.5,357C 452.194,355.065 453.861,353.231 455.5,351.5C 455.833,351.5 456.167,351.5 456.5,351.5C 465.221,350.111 474.055,349.444 483,349.5C 491.251,349.398 499.418,350.065 507.5,351.5 Z"/></g>
<g><path style="opacity:1" fill="#120da8" d="M 571.5,415.5 C 574.98,420.664 575.314,425.997 572.5,431.5C 572.676,426.12 572.342,420.787 571.5,415.5 Z"/></g>
<g><path style="opacity:1" fill="#fbfbf7" d="M 570.5,433.5 C 570.5,433.833 570.5,434.167 570.5,434.5C 568.247,436.702 565.581,437.535 562.5,437C 563.579,436.044 564.745,435.211 566,434.5C 566.816,429.316 566.65,424.316 565.5,419.5C 565.5,417.167 565.5,414.833 565.5,412.5C 566.5,412.5 567.5,412.5 568.5,412.5C 570.299,416.244 571.299,420.244 571.5,424.5C 571.232,427.517 570.898,430.517 570.5,433.5 Z"/></g>
<g><path style="opacity:1" fill="#1e15bc" d="M 534.5,415.5 C 543.64,422.048 552.807,422.048 562,415.5C 563.412,416.686 564.579,418.019 565.5,419.5C 565.824,423.555 565.491,427.555 564.5,431.5C 562.991,433.656 561.991,435.99 561.5,438.5C 563.857,438.663 566.19,438.497 568.5,438C 569.823,437.184 570.489,436.017 570.5,434.5C 570.5,434.167 570.5,433.833 570.5,433.5C 571.167,432.833 571.833,432.167 572.5,431.5C 572.3,439.05 568.634,442.05 561.5,440.5C 560.585,439.672 559.919,438.672 559.5,437.5C 561.124,433.254 562.457,428.92 563.5,424.5C 563.81,418.102 561.477,416.936 556.5,421C 550.083,421.87 543.749,421.536 537.5,420C 535.859,418.871 534.859,417.371 534.5,415.5 Z"/></g>
<g><path style="opacity:1" fill="#2118ab" d="M 563.5,399.5 C 564.376,399.369 565.043,399.702 565.5,400.5C 567.826,405.469 569.826,410.469 571.5,415.5C 567.895,410.719 565.229,405.386 563.5,399.5 Z"/></g>
<g><path style="opacity:1" fill="#1c16b0" d="M 412.5,399.5 C 408.479,408.41 407.479,417.743 409.5,427.5C 408.034,426.653 407.2,425.32 407,423.5C 406.261,417.442 406.594,411.442 408,405.5C 409.242,403.141 410.742,401.141 412.5,399.5 Z"/></g>
<g><path style="opacity:1" fill="#221bb4" d="M 447.5,369.5 C 441.669,373.137 435.669,376.637 429.5,380C 424.982,386.697 419.982,393.03 414.5,399C 413.906,399.464 413.239,399.631 412.5,399.5C 412.351,398.448 412.517,397.448 413,396.5C 418.67,392.82 422.67,387.82 425,381.5C 431.391,375.346 438.891,371.346 447.5,369.5 Z"/></g>
<g><path style="opacity:1" fill="#392cc2" d="M 524.5,369.5 C 529.31,369.489 532.644,371.656 534.5,376C 538.995,377.718 543.662,379.051 548.5,380C 553.155,383.787 557.488,387.953 561.5,392.5C 562.946,394.618 563.613,396.951 563.5,399.5C 556.192,388.147 545.859,380.647 532.5,377C 529.938,374.267 527.271,371.767 524.5,369.5 Z"/></g>
<g><path style="opacity:1" fill="#efeef8" d="M 501.5,362.5 C 503.942,363.719 506.276,365.219 508.5,367C 512.152,367.499 515.818,367.665 519.5,367.5C 521.05,368.441 522.716,369.107 524.5,369.5C 527.271,371.767 529.938,374.267 532.5,377C 545.859,380.647 556.192,388.147 563.5,399.5C 565.229,405.386 567.895,410.719 571.5,415.5C 572.342,420.787 572.676,426.12 572.5,431.5C 571.833,432.167 571.167,432.833 570.5,433.5C 570.898,430.517 571.232,427.517 571.5,424.5C 571.299,420.244 570.299,416.244 568.5,412.5C 567.5,412.5 566.5,412.5 565.5,412.5C 565.5,414.833 565.5,417.167 565.5,419.5C 564.579,418.019 563.412,416.686 562,415.5C 552.807,422.048 543.64,422.048 534.5,415.5C 532.344,413.04 530.011,413.04 527.5,415.5C 524.833,415.5 522.167,415.5 519.5,415.5C 516.869,413.847 514.203,412.181 511.5,410.5C 511.5,410.167 511.5,409.833 511.5,409.5C 509.832,407.521 509.166,405.188 509.5,402.5C 510.833,402.5 512.167,402.5 513.5,402.5C 515.294,404.797 517.294,406.963 519.5,409C 522.146,409.497 524.813,409.664 527.5,409.5C 527.509,407.692 527.009,406.025 526,404.5C 521.934,401.489 519.767,397.489 519.5,392.5C 521.288,392.215 522.955,392.548 524.5,393.5C 525.188,394.855 526.188,395.855 527.5,396.5C 527.285,398.179 527.952,399.179 529.5,399.5C 532.556,405.889 537.223,410.556 543.5,413.5C 546.167,414.833 548.833,414.833 551.5,413.5C 557.392,412.736 559.559,409.402 558,403.5C 557.392,401.934 556.558,400.6 555.5,399.5C 555.167,399.5 554.833,399.5 554.5,399.5C 552.135,394.804 548.468,391.471 543.5,389.5C 541.913,385.944 539.246,384.778 535.5,386C 537.828,389.516 540.495,392.682 543.5,395.5C 545.85,397.213 546.85,399.547 546.5,402.5C 541.971,402.504 538.471,400.504 536,396.5C 533.64,391.76 530.807,387.426 527.5,383.5C 527.5,383.167 527.5,382.833 527.5,382.5C 524.21,376.002 518.876,373.169 511.5,374C 509.919,374.707 508.419,375.54 507,376.5C 506.501,381.155 506.334,385.821 506.5,390.5C 505.167,390.5 503.833,390.5 502.5,390.5C 501.833,390.5 501.5,390.167 501.5,389.5C 501.148,386.572 500.482,383.738 499.5,381C 494.207,380.023 488.874,379.523 483.5,379.5C 481.271,377.901 480.938,375.901 482.5,373.5C 488.775,372.948 494.775,373.948 500.5,376.5C 502.553,375.061 503.553,373.061 503.5,370.5C 498.426,368.257 493.092,367.257 487.5,367.5C 483.833,367.5 480.167,367.5 476.5,367.5C 473.721,367.279 471.054,367.612 468.5,368.5C 467.624,368.369 466.957,368.702 466.5,369.5C 467.283,371.288 468.616,372.288 470.5,372.5C 471.836,374.01 473.003,375.677 474,377.5C 475.255,382.954 476.422,388.287 477.5,393.5C 477.365,396.417 478.032,399.084 479.5,401.5C 480.673,403.504 482.34,405.004 484.5,406C 487.793,406.826 491.126,407.326 494.5,407.5C 494.5,403.833 494.5,400.167 494.5,396.5C 496.144,396.286 497.644,396.62 499,397.5C 499.675,403.973 501.508,409.973 504.5,415.5C 505.343,418.516 506.843,421.183 509,423.5C 509.671,424.252 510.504,424.586 511.5,424.5C 513.11,427.649 515.777,429.316 519.5,429.5C 528.142,429.092 536.809,428.925 545.5,429C 548.206,427.092 551.206,426.259 554.5,426.5C 554.5,428.167 554.5,429.833 554.5,431.5C 551.853,432.665 549.186,433.832 546.5,435C 539.148,435.353 531.815,435.353 524.5,435C 523.919,435.893 523.585,436.893 523.5,438C 526.944,442.939 525.61,445.105 519.5,444.5C 517.977,441.37 517.311,438.037 517.5,434.5C 515.315,434.296 513.315,433.63 511.5,432.5C 509.272,431.623 507.272,430.29 505.5,428.5C 504.396,426.611 503.063,424.945 501.5,423.5C 499.828,415.67 495.161,412.003 487.5,412.5C 478.859,407.035 472.359,409.035 468,418.5C 467.685,420.586 467.185,422.586 466.5,424.5C 465.167,424.5 463.833,424.5 462.5,424.5C 462.368,421.43 462.701,418.43 463.5,415.5C 463.5,414.833 463.5,414.167 463.5,413.5C 466.327,409.84 469.661,406.674 473.5,404C 471.605,395.745 469.938,387.578 468.5,379.5C 467.781,377.112 466.115,375.612 463.5,375C 459.775,374.24 456.108,374.407 452.5,375.5C 451.239,377.562 451.739,379.228 454,380.5C 454.667,384.167 454.667,387.833 454,391.5C 452.121,393.871 450.955,396.538 450.5,399.5C 447.619,406.092 446.785,413.092 448,420.5C 449.69,425.674 452.856,429.341 457.5,431.5C 457.953,432.458 458.619,433.292 459.5,434C 467.366,436.258 475.366,436.924 483.5,436C 485.653,435.901 487.319,435.067 488.5,433.5C 492.795,431.842 497.128,430.509 501.5,429.5C 501.657,430.873 501.49,432.207 501,433.5C 498.954,435.376 497.121,437.376 495.5,439.5C 496.545,441.205 497.878,442.705 499.5,444C 503.188,444.489 506.521,445.655 509.5,447.5C 509.5,448.5 509.5,449.5 509.5,450.5C 506.15,450.665 502.817,450.498 499.5,450C 495.802,447.814 492.468,445.147 489.5,442C 480.816,442.612 472.149,442.446 463.5,441.5C 455.887,438.106 448.554,433.939 441.5,429C 436.389,427.889 431.722,428.889 427.5,432C 425.549,433.734 424.549,435.901 424.5,438.5C 421.813,438.664 419.146,438.497 416.5,438C 413.757,434.653 411.424,431.153 409.5,427.5C 407.479,417.743 408.479,408.41 412.5,399.5C 413.239,399.631 413.906,399.464 414.5,399C 419.982,393.03 424.982,386.697 429.5,380C 435.669,376.637 441.669,373.137 447.5,369.5C 449.965,369.233 452.299,368.566 454.5,367.5C 459.623,364.068 465.29,361.901 471.5,361C 481.571,360.223 491.571,360.723 501.5,362.5 Z"/></g>
<g><path style="opacity:1" fill="#241ca9" d="M 429.5,423.5 C 426.254,426.045 423.087,428.711 420,431.5C 418.002,429.508 416.502,427.174 415.5,424.5C 417.567,425.263 419.234,426.596 420.5,428.5C 422.797,425.529 425.797,423.862 429.5,423.5 Z"/></g>
<g><path style="opacity:1" fill="#2118b6" d="M 511.5,424.5 C 513.783,424.608 515.783,425.441 517.5,427C 526.833,427.667 536.167,427.667 545.5,427C 548.939,424.003 552.439,423.837 556,426.5C 556.599,428.535 556.099,430.201 554.5,431.5C 554.5,429.833 554.5,428.167 554.5,426.5C 551.206,426.259 548.206,427.092 545.5,429C 536.809,428.925 528.142,429.092 519.5,429.5C 515.777,429.316 513.11,427.649 511.5,424.5 Z"/></g>
<g><path style="opacity:1" fill="#5d5cc3" d="M 441.5,417.5 C 442.461,419.265 442.795,421.265 442.5,423.5C 438.833,423.5 435.167,423.5 431.5,423.5C 431.5,423.167 431.5,422.833 431.5,422.5C 434.833,422.5 438.167,422.5 441.5,422.5C 441.5,420.833 441.5,419.167 441.5,417.5 Z"/></g>
<g><path style="opacity:1" fill="#0906da" d="M 441.5,402.5 C 440.68,408.797 440.347,415.131 440.5,421.5C 437.287,421.19 434.287,421.523 431.5,422.5C 431.5,422.833 431.5,423.167 431.5,423.5C 430.833,423.5 430.167,423.5 429.5,423.5C 425.797,423.862 422.797,425.529 420.5,428.5C 419.234,426.596 417.567,425.263 415.5,424.5C 415.5,420.833 415.5,417.167 415.5,413.5C 416.65,411.397 417.983,409.397 419.5,407.5C 420.208,409.745 421.208,411.745 422.5,413.5C 423.455,415.746 424.122,418.079 424.5,420.5C 426.415,420.784 428.081,420.451 429.5,419.5C 430.434,418.432 430.768,417.099 430.5,415.5C 431.451,416.919 431.784,418.585 431.5,420.5C 434.167,420.5 436.833,420.5 439.5,420.5C 439.334,415.489 439.501,410.489 440,405.5C 440.232,404.263 440.732,403.263 441.5,402.5 Z"/></g>
<g><path style="opacity:1" fill="#2018b3" d="M 504.5,415.5 C 507.917,417.592 510.25,420.592 511.5,424.5C 510.504,424.586 509.671,424.252 509,423.5C 506.843,421.183 505.343,418.516 504.5,415.5 Z"/></g>
<g><path style="opacity:1" fill="#3024ba" d="M 487.5,412.5 C 495.161,412.003 499.828,415.67 501.5,423.5C 498.37,421.701 496.37,419.034 495.5,415.5C 492.264,415.482 489.597,414.482 487.5,412.5 Z"/></g>
<g><path style="opacity:1" fill="#433a9c" d="M 534.5,415.5 C 532.167,415.5 529.833,415.5 527.5,415.5C 530.011,413.04 532.344,413.04 534.5,415.5 Z"/></g>
<g><path style="opacity:1" fill="#2d21b8" d="M 487.5,412.5 C 477.536,409.611 471.37,413.277 469,423.5C 468.329,424.252 467.496,424.586 466.5,424.5C 467.185,422.586 467.685,420.586 468,418.5C 472.359,409.035 478.859,407.035 487.5,412.5 Z"/></g>
<g><path style="opacity:1" fill="#0402f9" d="M 468.5,379.5 C 468.672,388.208 469.339,396.875 470.5,405.5C 468.833,405.5 467.167,405.5 465.5,405.5C 465.306,408.33 464.639,410.996 463.5,413.5C 463.5,414.167 463.5,414.833 463.5,415.5C 462.25,415.577 461.417,416.244 461,417.5C 460.333,419.833 460.333,422.167 461,424.5C 462.943,425.807 464.777,425.807 466.5,424.5C 467.496,424.586 468.329,424.252 469,423.5C 471.37,413.277 477.536,409.611 487.5,412.5C 489.597,414.482 492.264,415.482 495.5,415.5C 496.37,419.034 498.37,421.701 501.5,423.5C 501.5,424.833 501.5,426.167 501.5,427.5C 496.452,427.96 492.119,429.96 488.5,433.5C 478.042,434.754 467.709,434.088 457.5,431.5C 454.503,428.652 452.003,425.319 450,421.5C 449.548,414.156 449.715,406.823 450.5,399.5C 451.5,399.5 452.5,399.5 453.5,399.5C 455.736,391.952 456.069,384.286 454.5,376.5C 459.605,375.91 464.272,376.91 468.5,379.5 Z"/></g>
<g><path style="opacity:1" fill="#312ab8" d="M 463.5,415.5 C 462.701,418.43 462.368,421.43 462.5,424.5C 463.833,424.5 465.167,424.5 466.5,424.5C 464.777,425.807 462.943,425.807 461,424.5C 460.333,422.167 460.333,419.833 461,417.5C 461.417,416.244 462.25,415.577 463.5,415.5 Z"/></g>
<g><path style="opacity:1" fill="#1813a8" d="M 443.5,399.5 C 442.043,405.401 441.376,411.401 441.5,417.5C 441.5,419.167 441.5,420.833 441.5,422.5C 438.167,422.5 434.833,422.5 431.5,422.5C 434.287,421.523 437.287,421.19 440.5,421.5C 440.347,415.131 440.68,408.797 441.5,402.5C 441.932,401.29 442.599,400.29 443.5,399.5 Z"/></g>
<g><path style="opacity:1" fill="#2419b5" d="M 511.5,410.5 C 514.203,412.181 516.869,413.847 519.5,415.5C 515.399,415.798 512.733,414.132 511.5,410.5 Z"/></g>
<g><path style="opacity:1" fill="#241ac3" d="M 450.5,399.5 C 449.715,406.823 449.548,414.156 450,421.5C 452.003,425.319 454.503,428.652 457.5,431.5C 452.856,429.341 449.69,425.674 448,420.5C 446.785,413.092 447.619,406.092 450.5,399.5 Z"/></g>
<g><path style="opacity:1" fill="#251da3" d="M 555.5,399.5 C 556.558,400.6 557.392,401.934 558,403.5C 559.559,409.402 557.392,412.736 551.5,413.5C 556.716,410.155 558.049,405.488 555.5,399.5 Z"/></g>
<g><path style="opacity:1" fill="#2e21b1" d="M 527.5,396.5 C 526.188,395.855 525.188,394.855 524.5,393.5C 522.955,392.548 521.288,392.215 519.5,392.5C 519.767,397.489 521.934,401.489 526,404.5C 527.009,406.025 527.509,407.692 527.5,409.5C 524.813,409.664 522.146,409.497 519.5,409C 517.294,406.963 515.294,404.797 513.5,402.5C 514.552,402.351 515.552,402.517 516.5,403C 518.036,404.96 519.869,406.46 522,407.5C 522.833,407.167 523.667,406.833 524.5,406.5C 520.663,403.166 518.33,398.999 517.5,394C 518.226,389.729 520.559,388.563 524.5,390.5C 526.415,392.071 527.415,394.071 527.5,396.5 Z"/></g>
<g><path style="opacity:1" fill="#4034c6" d="M 513.5,402.5 C 512.167,402.5 510.833,402.5 509.5,402.5C 509.166,405.188 509.832,407.521 511.5,409.5C 508.714,409.044 507.381,407.377 507.5,404.5C 507.817,401.345 509.483,400.178 512.5,401C 513.056,401.383 513.389,401.883 513.5,402.5 Z"/></g>
<g><path style="opacity:1" fill="#3528aa" d="M 422.5,413.5 C 421.208,411.745 420.208,409.745 419.5,407.5C 417.983,409.397 416.65,411.397 415.5,413.5C 415.905,410.013 416.905,406.68 418.5,403.5C 419.325,402.614 420.325,402.281 421.5,402.5C 421.552,406.198 421.886,409.865 422.5,413.5 Z"/></g>
<g><path style="opacity:1" fill="#3027ae" d="M 529.5,399.5 C 533.833,404.5 538.5,409.167 543.5,413.5C 537.223,410.556 532.556,405.889 529.5,399.5 Z"/></g>
<g><path style="opacity:1" fill="#241bb4" d="M 504.5,415.5 C 501.508,409.973 499.675,403.973 499,397.5C 497.644,396.62 496.144,396.286 494.5,396.5C 494.5,400.167 494.5,403.833 494.5,407.5C 491.126,407.326 487.793,406.826 484.5,406C 482.34,405.004 480.673,403.504 479.5,401.5C 482.366,402.759 485.366,403.759 488.5,404.5C 489.833,404.5 491.167,404.5 492.5,404.5C 492.335,401.482 492.502,398.482 493,395.5C 495.916,393.987 498.582,394.32 501,396.5C 501.953,402.889 503.12,409.222 504.5,415.5 Z"/></g>
<g><path style="opacity:1" fill="#221ab1" d="M 436.5,383.5 C 433.463,387.064 430.963,391.064 429,395.5C 428.289,402.295 428.789,408.962 430.5,415.5C 430.768,417.099 430.434,418.432 429.5,419.5C 429.116,415.414 428.283,411.414 427,407.5C 425.383,397.502 428.55,389.502 436.5,383.5 Z"/></g>
<g><path style="opacity:1" fill="#241ab9" d="M 468.5,379.5 C 469.938,387.578 471.605,395.745 473.5,404C 469.661,406.674 466.327,409.84 463.5,413.5C 464.639,410.996 465.306,408.33 465.5,405.5C 467.167,405.5 468.833,405.5 470.5,405.5C 469.339,396.875 468.672,388.208 468.5,379.5 Z"/></g>
<g><path style="opacity:1" fill="#3023c4" d="M 527.5,383.5 C 530.807,387.426 533.64,391.76 536,396.5C 538.471,400.504 541.971,402.504 546.5,402.5C 546.85,399.547 545.85,397.213 543.5,395.5C 542.952,393.606 541.952,391.94 540.5,390.5C 541.325,389.614 542.325,389.281 543.5,389.5C 548.468,391.471 552.135,394.804 554.5,399.5C 552.672,398.206 550.672,397.206 548.5,396.5C 548.5,398.833 548.5,401.167 548.5,403.5C 545.482,403.665 542.482,403.498 539.5,403C 538.027,402.29 537.36,401.124 537.5,399.5C 536.5,399.5 535.5,399.5 534.5,399.5C 533.141,395.118 530.974,391.118 528,387.5C 527.51,386.207 527.343,384.873 527.5,383.5 Z"/></g>
<g><path style="opacity:1" fill="#251bb1" d="M 443.5,399.5 C 443,395.836 444.167,392.836 447,390.5C 447.497,387.854 447.664,385.187 447.5,382.5C 444.43,382.368 441.43,382.701 438.5,383.5C 439.417,381.489 441.083,380.489 443.5,380.5C 445.1,380.551 446.6,380.884 448,381.5C 449.56,388.394 448.06,394.394 443.5,399.5 Z"/></g>
<g><path style="opacity:1" fill="#0402f8" d="M 443.5,399.5 C 442.599,400.29 441.932,401.29 441.5,402.5C 440.732,403.263 440.232,404.263 440,405.5C 439.501,410.489 439.334,415.489 439.5,420.5C 436.833,420.5 434.167,420.5 431.5,420.5C 431.784,418.585 431.451,416.919 430.5,415.5C 428.789,408.962 428.289,402.295 429,395.5C 430.963,391.064 433.463,387.064 436.5,383.5C 437.167,383.5 437.833,383.5 438.5,383.5C 441.43,382.701 444.43,382.368 447.5,382.5C 447.664,385.187 447.497,387.854 447,390.5C 444.167,392.836 443,395.836 443.5,399.5 Z"/></g>
<g><path style="opacity:1" fill="#3529a1" d="M 543.5,389.5 C 542.325,389.281 541.325,389.614 540.5,390.5C 541.952,391.94 542.952,393.606 543.5,395.5C 540.495,392.682 537.828,389.516 535.5,386C 539.246,384.778 541.913,385.944 543.5,389.5 Z"/></g>
<g><path style="opacity:1" fill="#3a2cb0" d="M 483.5,379.5 C 488.874,379.523 494.207,380.023 499.5,381C 500.482,383.738 501.148,386.572 501.5,389.5C 500.067,387.481 498.733,385.314 497.5,383C 492.828,381.347 488.161,380.181 483.5,379.5 Z"/></g>
<g><path style="opacity:1" fill="#0a06e7" d="M 476.5,367.5 C 480.167,367.5 483.833,367.5 487.5,367.5C 490.675,368.429 494.009,369.262 497.5,370C 498.5,370.833 499.5,371.667 500.5,372.5C 494.397,372.405 488.397,372.738 482.5,373.5C 480.938,375.901 481.271,377.901 483.5,379.5C 488.161,380.181 492.828,381.347 497.5,383C 498.733,385.314 500.067,387.481 501.5,389.5C 501.5,390.167 501.833,390.5 502.5,390.5C 503.568,391.434 504.901,391.768 506.5,391.5C 506.209,392.649 505.376,393.316 504,393.5C 502.08,392.912 500.413,391.912 499,390.5C 498.667,390.833 498.333,391.167 498,391.5C 497.909,386.92 495.742,383.92 491.5,382.5C 487.081,383.804 485.414,386.804 486.5,391.5C 485.5,391.5 484.5,391.5 483.5,391.5C 484.569,388.74 485.569,385.907 486.5,383C 485.101,382.405 483.768,382.572 482.5,383.5C 479.72,387.04 478.887,391.04 480,395.5C 482.305,398.61 484.805,398.943 487.5,396.5C 488.76,398.353 488.76,400.186 487.5,402C 488.5,402.333 489.5,402.667 490.5,403C 489.584,403.278 488.918,403.778 488.5,404.5C 485.366,403.759 482.366,402.759 479.5,401.5C 478.032,399.084 477.365,396.417 477.5,393.5C 477.595,388.113 477.095,382.78 476,377.5C 475.376,375.246 474.043,373.579 472,372.5C 471.517,371.552 471.351,370.552 471.5,369.5C 473.781,369.923 475.448,369.256 476.5,367.5 Z"/></g>
<g><path style="opacity:1" fill="#2f23af" d="M 468.5,379.5 C 464.272,376.91 459.605,375.91 454.5,376.5C 456.069,384.286 455.736,391.952 453.5,399.5C 452.5,399.5 451.5,399.5 450.5,399.5C 450.955,396.538 452.121,393.871 454,391.5C 454.667,387.833 454.667,384.167 454,380.5C 451.739,379.228 451.239,377.562 452.5,375.5C 456.108,374.407 459.775,374.24 463.5,375C 466.115,375.612 467.781,377.112 468.5,379.5 Z"/></g>
<g><path style="opacity:1" fill="#3228b3" d="M 527.5,382.5 C 513.762,370.706 506.762,373.706 506.5,391.5C 504.901,391.768 503.568,391.434 502.5,390.5C 503.833,390.5 505.167,390.5 506.5,390.5C 506.334,385.821 506.501,381.155 507,376.5C 508.419,375.54 509.919,374.707 511.5,374C 518.876,373.169 524.21,376.002 527.5,382.5 Z"/></g>
<g><path style="opacity:1" fill="#2a22a8" d="M 487.5,367.5 C 493.092,367.257 498.426,368.257 503.5,370.5C 503.553,373.061 502.553,375.061 500.5,376.5C 494.775,373.948 488.775,372.948 482.5,373.5C 488.397,372.738 494.397,372.405 500.5,372.5C 499.5,371.667 498.5,370.833 497.5,370C 494.009,369.262 490.675,368.429 487.5,367.5 Z"/></g>
<g><path style="opacity:1" fill="#6e6aba" d="M 468.5,368.5 C 468.733,370.062 469.4,371.395 470.5,372.5C 468.616,372.288 467.283,371.288 466.5,369.5C 466.957,368.702 467.624,368.369 468.5,368.5 Z"/></g>
<g><path style="opacity:1" fill="#211ab1" d="M 476.5,367.5 C 475.448,369.256 473.781,369.923 471.5,369.5C 471.351,370.552 471.517,371.552 472,372.5C 474.043,373.579 475.376,375.246 476,377.5C 477.095,382.78 477.595,388.113 477.5,393.5C 476.422,388.287 475.255,382.954 474,377.5C 473.003,375.677 471.836,374.01 470.5,372.5C 469.4,371.395 468.733,370.062 468.5,368.5C 471.054,367.612 473.721,367.279 476.5,367.5 Z"/></g>
<g><path style="opacity:1" fill="#251fbb" d="M 501.5,362.5 C 507.734,364.157 513.734,365.824 519.5,367.5C 515.818,367.665 512.152,367.499 508.5,367C 506.276,365.219 503.942,363.719 501.5,362.5 Z"/></g>
<g><path style="opacity:1" fill="#231caa" d="M 501.5,362.5 C 491.571,360.723 481.571,360.223 471.5,361C 465.29,361.901 459.623,364.068 454.5,367.5C 454.414,366.504 454.748,365.671 455.5,365C 459.356,362.158 463.69,360.491 468.5,360C 477.5,359.333 486.5,359.333 495.5,360C 497.974,360.037 499.974,360.87 501.5,362.5 Z"/></g>
<g><path style="opacity:1" fill="#1e16bd" d="M 457.5,431.5 C 467.709,434.088 478.042,434.754 488.5,433.5C 487.319,435.067 485.653,435.901 483.5,436C 475.366,436.924 467.366,436.258 459.5,434C 458.619,433.292 457.953,432.458 457.5,431.5 Z"/></g>
<g><path style="opacity:1" fill="#2a20af" d="M 511.5,432.5 C 513.315,433.63 515.315,434.296 517.5,434.5C 517.311,438.037 517.977,441.37 519.5,444.5C 518.504,444.586 517.671,444.252 517,443.5C 516.503,441.19 516.337,438.857 516.5,436.5C 513.412,436.803 511.746,435.47 511.5,432.5 Z"/></g>
<g><path style="opacity:1" fill="#2921ab" d="M 554.5,431.5 C 553.274,433.876 551.274,435.376 548.5,436C 540.841,436.5 533.174,436.666 525.5,436.5C 525.915,438.747 526.582,440.914 527.5,443C 525.568,447.14 522.901,447.64 519.5,444.5C 525.61,445.105 526.944,442.939 523.5,438C 523.585,436.893 523.919,435.893 524.5,435C 531.815,435.353 539.148,435.353 546.5,435C 549.186,433.832 551.853,432.665 554.5,431.5 Z"/></g>
<g><path style="opacity:1" fill="#d5d6fb" d="M 565.5,419.5 C 566.65,424.316 566.816,429.316 566,434.5C 564.745,435.211 563.579,436.044 562.5,437C 565.581,437.535 568.247,436.702 570.5,434.5C 570.489,436.017 569.823,437.184 568.5,438C 566.19,438.497 563.857,438.663 561.5,438.5C 561.991,435.99 562.991,433.656 564.5,431.5C 565.491,427.555 565.824,423.555 565.5,419.5 Z"/></g>
<g><path style="opacity:1" fill="#281db4" d="M 409.5,427.5 C 411.424,431.153 413.757,434.653 416.5,438C 419.146,438.497 421.813,438.664 424.5,438.5C 424.549,435.901 425.549,433.734 427.5,432C 431.722,428.889 436.389,427.889 441.5,429C 448.554,433.939 455.887,438.106 463.5,441.5C 462.127,441.343 460.793,441.51 459.5,442C 460.791,443.292 460.791,444.458 459.5,445.5C 459.631,444.624 459.298,443.957 458.5,443.5C 452.011,439.219 445.011,437.886 437.5,439.5C 442.085,440.39 446.418,441.723 450.5,443.5C 448.097,443.552 445.764,443.219 443.5,442.5C 441.254,441.79 438.92,441.29 436.5,441C 435.663,439.989 435.33,438.822 435.5,437.5C 439.804,436.869 444.137,436.369 448.5,436C 443.262,431.086 437.262,429.753 430.5,432C 425.252,442.369 418.752,443.202 411,434.5C 409.798,432.323 409.298,429.989 409.5,427.5 Z"/></g>
<g><path style="opacity:1" fill="#d9dafa" d="M 459.5,445.5 C 456.692,444.071 453.692,443.405 450.5,443.5C 446.418,441.723 442.085,440.39 437.5,439.5C 445.011,437.886 452.011,439.219 458.5,443.5C 459.298,443.957 459.631,444.624 459.5,445.5 Z"/></g>
<g><path style="opacity:1" fill="#2b21b9" d="M 501.5,423.5 C 503.063,424.945 504.396,426.611 505.5,428.5C 504.5,428.5 503.5,428.5 502.5,428.5C 503.211,432.281 502.045,435.281 499,437.5C 498.333,438.5 498.333,439.5 499,440.5C 502.168,442.722 505.668,444.056 509.5,444.5C 509.5,445.5 509.5,446.5 509.5,447.5C 506.521,445.655 503.188,444.489 499.5,444C 497.878,442.705 496.545,441.205 495.5,439.5C 497.121,437.376 498.954,435.376 501,433.5C 501.49,432.207 501.657,430.873 501.5,429.5C 497.128,430.509 492.795,431.842 488.5,433.5C 492.119,429.96 496.452,427.96 501.5,427.5C 501.5,426.167 501.5,424.833 501.5,423.5 Z"/></g>
<g><path style="opacity:1" fill="#1812c3" d="M 578.5,447.5 C 566.835,446.2 555.169,446.2 543.5,447.5C 544.23,445.955 545.563,445.122 547.5,445C 557.828,444.5 568.161,444.334 578.5,444.5C 578.5,445.5 578.5,446.5 578.5,447.5 Z"/></g>
<g><path style="opacity:1" fill="#2219bc" d="M 419.5,444.5 C 423.768,444.869 427.768,445.869 431.5,447.5C 422.505,446.792 413.505,446.625 404.5,447C 400.614,449.097 397.614,452.097 395.5,456C 400.123,455.774 404.79,455.607 409.5,455.5C 408.817,457.176 407.483,457.843 405.5,457.5C 392.881,461.076 390.548,457.909 398.5,448C 405.123,444.856 412.123,443.689 419.5,444.5 Z"/></g>
<g><path style="opacity:1" fill="#261eaa" d="M 543.5,447.5 C 538.37,448.913 533.037,449.913 527.5,450.5C 529.148,449.073 531.148,448.24 533.5,448C 536.817,447.502 540.15,447.335 543.5,447.5 Z"/></g>
<g><path style="opacity:1" fill="#2e25ab" d="M 435.5,447.5 C 445.942,447.213 455.275,449.88 463.5,455.5C 454.356,451.781 445.023,449.114 435.5,447.5 Z"/></g>
<g><path style="opacity:1" fill="#291dc5" d="M 463.5,441.5 C 472.149,442.446 480.816,442.612 489.5,442C 492.468,445.147 495.802,447.814 499.5,450C 502.817,450.498 506.15,450.665 509.5,450.5C 509.5,449.5 509.5,448.5 509.5,447.5C 510.586,447.62 511.253,448.287 511.5,449.5C 510.063,451.577 509.396,453.91 509.5,456.5C 513.533,455.327 517.533,453.827 521.5,452C 523.473,451.505 525.473,451.338 527.5,451.5C 519.038,454.398 511.038,458.398 503.5,463.5C 504.263,461.433 505.596,459.766 507.5,458.5C 506.975,457.808 506.308,457.308 505.5,457C 506.357,456.311 507.023,455.478 507.5,454.5C 504.487,453.867 501.654,452.867 499,451.5C 494.28,453.084 494.447,454.25 499.5,455C 500.642,459.559 498.808,462.392 494,463.5C 491.992,463.693 490.492,463.026 489.5,461.5C 493.624,463.101 496.624,461.768 498.5,457.5C 492.647,456.238 487.314,453.904 482.5,450.5C 480.604,449.534 478.604,449.201 476.5,449.5C 476.5,450.833 476.5,452.167 476.5,453.5C 474.623,452.341 474.123,450.674 475,448.5C 480.129,446.983 484.629,448.15 488.5,452C 490.134,452.494 491.801,452.66 493.5,452.5C 493.66,450.801 493.494,449.134 493,447.5C 491.229,446.696 489.729,445.529 488.5,444C 481.856,444.378 475.189,444.378 468.5,444C 466.256,443.95 464.589,443.117 463.5,441.5 Z"/></g>
<g><path style="opacity:1" fill="#281db6" d="M 578.5,447.5 C 583.508,448.802 586.174,452.135 586.5,457.5C 577.322,457.04 568.155,456.374 559,455.5C 542.398,455.705 526.564,459.205 511.5,466C 510.167,467 510.167,468 511.5,469C 514.157,469.175 516.824,469.008 519.5,468.5C 513.96,471.365 508.96,475.032 504.5,479.5C 504.953,476.537 506.453,474.204 509,472.5C 509.781,471.056 509.614,469.723 508.5,468.5C 504.872,471.322 501.205,474.155 497.5,477C 493.889,478.254 492.389,477.088 493,473.5C 493.671,472.748 494.504,472.414 495.5,472.5C 494.972,473.847 494.805,475.181 495,476.5C 504.702,466.735 516.202,460.235 529.5,457C 533.145,456.281 536.812,455.781 540.5,455.5C 548.154,454.93 555.821,454.596 563.5,454.5C 569.623,454.177 575.623,454.843 581.5,456.5C 582.5,456.167 583.5,455.833 584.5,455.5C 582.122,453.122 580.122,450.455 578.5,447.5 Z"/></g>
<g><path style="opacity:1" fill="#ececf8" d="M 431.5,447.5 C 432.833,447.5 434.167,447.5 435.5,447.5C 445.023,449.114 454.356,451.781 463.5,455.5C 463.5,456.167 463.833,456.5 464.5,456.5C 469.233,459.89 474.233,462.89 479.5,465.5C 479.5,465.833 479.5,466.167 479.5,466.5C 481.47,468.647 483.303,470.98 485,473.5C 485.688,474.332 485.521,474.998 484.5,475.5C 480.764,472.091 476.764,469.091 472.5,466.5C 472.167,466.5 471.833,466.5 471.5,466.5C 457.216,457.678 441.549,453.678 424.5,454.5C 419.322,454.501 414.322,454.834 409.5,455.5C 404.79,455.607 400.123,455.774 395.5,456C 397.614,452.097 400.614,449.097 404.5,447C 413.505,446.625 422.505,446.792 431.5,447.5 Z"/></g>
<g><path style="opacity:1" fill="#f0f0f9" d="M 578.5,447.5 C 580.122,450.455 582.122,453.122 584.5,455.5C 583.5,455.833 582.5,456.167 581.5,456.5C 575.623,454.843 569.623,454.177 563.5,454.5C 555.783,453.192 548.116,453.525 540.5,455.5C 536.812,455.781 533.145,456.281 529.5,457C 516.202,460.235 504.702,466.735 495,476.5C 494.805,475.181 494.972,473.847 495.5,472.5C 498.189,469.48 500.856,466.48 503.5,463.5C 511.038,458.398 519.038,454.398 527.5,451.5C 527.5,451.167 527.5,450.833 527.5,450.5C 533.037,449.913 538.37,448.913 543.5,447.5C 555.169,446.2 566.835,446.2 578.5,447.5 Z"/></g>
<g><path style="opacity:1" fill="#5d55bb" d="M 563.5,454.5 C 555.821,454.596 548.154,454.93 540.5,455.5C 548.116,453.525 555.783,453.192 563.5,454.5 Z"/></g>
<g><path style="opacity:1" fill="#2017b0" d="M 409.5,455.5 C 414.322,454.834 419.322,454.501 424.5,454.5C 441.549,453.678 457.216,457.678 471.5,466.5C 462.238,463.246 452.904,460.079 443.5,457C 432.206,455.707 420.873,455.207 409.5,455.5 Z"/></g>
<g><path style="opacity:1" fill="#1f17b4" d="M 607.5,470.5 C 606.5,469.833 605.5,469.167 604.5,468.5C 603.426,466.716 601.76,465.549 599.5,465C 591.601,463.072 583.601,461.906 575.5,461.5C 561.2,459.857 546.867,460.524 532.5,463.5C 532.611,462.883 532.944,462.383 533.5,462C 536.167,461.333 538.833,460.667 541.5,460C 559.196,459.137 576.862,459.47 594.5,461C 596.845,462.783 599.512,463.783 602.5,464C 605.493,465.159 607.16,467.325 607.5,470.5 Z"/></g>
<g><path style="opacity:1" fill="#221ab7" d="M 503.5,463.5 C 500.856,466.48 498.189,469.48 495.5,472.5C 496.438,467.899 499.104,464.899 503.5,463.5 Z"/></g>
<g><path style="opacity:1" fill="#1310a4" d="M 531.5,463.5 C 527.421,464.755 523.421,466.422 519.5,468.5C 522.449,464.701 526.449,463.035 531.5,463.5 Z"/></g>
<g><path style="opacity:1" fill="#0805ef" d="M 463.5,441.5 C 464.589,443.117 466.256,443.95 468.5,444C 475.189,444.378 481.856,444.378 488.5,444C 489.729,445.529 491.229,446.696 493,447.5C 493.494,449.134 493.66,450.801 493.5,452.5C 491.801,452.66 490.134,452.494 488.5,452C 484.629,448.15 480.129,446.983 475,448.5C 474.123,450.674 474.623,452.341 476.5,453.5C 478.104,459.642 482.104,462.309 488.5,461.5C 488.833,461.5 489.167,461.5 489.5,461.5C 490.492,463.026 491.992,463.693 494,463.5C 498.808,462.392 500.642,459.559 499.5,455C 494.447,454.25 494.28,453.084 499,451.5C 501.654,452.867 504.487,453.867 507.5,454.5C 507.023,455.478 506.357,456.311 505.5,457C 506.308,457.308 506.975,457.808 507.5,458.5C 505.596,459.766 504.263,461.433 503.5,463.5C 499.104,464.899 496.438,467.899 495.5,472.5C 494.504,472.414 493.671,472.748 493,473.5C 492.389,477.088 493.889,478.254 497.5,477C 501.205,474.155 504.872,471.322 508.5,468.5C 509.614,469.723 509.781,471.056 509,472.5C 506.453,474.204 504.953,476.537 504.5,479.5C 504.167,479.5 503.833,479.5 503.5,479.5C 498.317,481.489 495.817,485.156 496,490.5C 496.995,489.934 497.828,489.267 498.5,488.5C 504.906,485.024 511.24,481.358 517.5,477.5C 518.737,477.556 519.737,478.056 520.5,479C 517.001,480.723 514.001,482.89 511.5,485.5C 511.5,485.833 511.5,486.167 511.5,486.5C 502.741,488.926 497.407,494.593 495.5,503.5C 492.102,503.82 488.768,503.487 485.5,502.5C 481.513,494.347 475.513,488.18 467.5,484C 466.207,483.51 464.873,483.343 463.5,483.5C 460.322,481.991 456.989,480.658 453.5,479.5C 453.53,478.503 453.03,477.836 452,477.5C 449.226,476.464 446.393,475.631 443.5,475C 417.889,472.394 392.889,474.894 368.5,482.5C 368.196,481.85 367.863,481.183 367.5,480.5C 369.274,479.813 370.941,478.98 372.5,478C 370.148,477.424 369.148,475.924 369.5,473.5C 369.64,471.97 370.307,470.97 371.5,470.5C 371.5,472.167 371.5,473.833 371.5,475.5C 374.532,475.495 377.532,475.162 380.5,474.5C 382.03,474.36 383.03,473.693 383.5,472.5C 401.375,469.729 419.375,468.895 437.5,470C 443.109,471.485 448.775,472.819 454.5,474C 458.892,476.52 463.559,478.353 468.5,479.5C 473.214,483.546 478.214,487.212 483.5,490.5C 484.167,490.5 484.5,490.167 484.5,489.5C 485.075,484.691 482.741,481.691 477.5,480.5C 477.5,479.833 477.167,479.5 476.5,479.5C 476.649,478.448 476.483,477.448 476,476.5C 468.133,469.38 458.966,465.046 448.5,463.5C 448.167,463.5 447.833,463.5 447.5,463.5C 446.77,461.955 445.437,461.122 443.5,461C 439.514,460.501 435.514,460.334 431.5,460.5C 422.161,460.334 412.827,460.5 403.5,461C 400.635,461.183 397.969,461.683 395.5,462.5C 391.519,463.021 387.519,463.354 383.5,463.5C 382.167,463.5 380.833,463.5 379.5,463.5C 380.681,461.933 382.347,461.099 384.5,461C 390.52,460.699 396.52,460.199 402.5,459.5C 404.03,459.36 405.03,458.693 405.5,457.5C 407.483,457.843 408.817,457.176 409.5,455.5C 420.873,455.207 432.206,455.707 443.5,457C 452.904,460.079 462.238,463.246 471.5,466.5C 471.833,466.5 472.167,466.5 472.5,466.5C 472.511,468.017 473.177,469.184 474.5,470C 478.777,472.607 482.777,475.607 486.5,479C 484.008,480.249 484.175,481.416 487,482.5C 488.828,476.482 487.328,471.315 482.5,467C 481.552,466.517 480.552,466.351 479.5,466.5C 479.5,466.167 479.5,465.833 479.5,465.5C 475.761,460.299 470.761,457.299 464.5,456.5C 463.833,456.5 463.5,456.167 463.5,455.5C 455.275,449.88 445.942,447.213 435.5,447.5C 434.167,447.5 432.833,447.5 431.5,447.5C 427.768,445.869 423.768,444.869 419.5,444.5C 424.054,444.745 428.554,444.412 433,443.5C 436.915,445.476 441.082,445.976 445.5,445C 444.619,444.292 443.953,443.458 443.5,442.5C 445.764,443.219 448.097,443.552 450.5,443.5C 453.692,443.405 456.692,444.071 459.5,445.5C 460.791,444.458 460.791,443.292 459.5,442C 460.793,441.51 462.127,441.343 463.5,441.5 Z"/></g>
<g><path style="opacity:1" fill="#cecef9" d="M 431.5,460.5 C 431.5,460.833 431.5,461.167 431.5,461.5C 419.485,461.424 407.485,461.757 395.5,462.5C 397.969,461.683 400.635,461.183 403.5,461C 412.827,460.5 422.161,460.334 431.5,460.5 Z"/></g>
<g><path style="opacity:1" fill="#2f26a9" d="M 431.5,461.5 C 431.5,461.167 431.5,460.833 431.5,460.5C 435.514,460.334 439.514,460.501 443.5,461C 445.437,461.122 446.77,461.955 447.5,463.5C 442.256,462.185 436.923,461.518 431.5,461.5 Z"/></g>
<g><path style="opacity:1" fill="#3f2ebd" d="M 464.5,456.5 C 470.761,457.299 475.761,460.299 479.5,465.5C 474.233,462.89 469.233,459.89 464.5,456.5 Z"/></g>
<g><path style="opacity:1" fill="#251eb3" d="M 476.5,453.5 C 479.891,457.187 483.891,459.854 488.5,461.5C 482.104,462.309 478.104,459.642 476.5,453.5 Z"/></g>
<g><path style="opacity:1" fill="#f0eff8" d="M 489.5,461.5 C 489.167,461.5 488.833,461.5 488.5,461.5C 483.891,459.854 479.891,457.187 476.5,453.5C 476.5,452.167 476.5,450.833 476.5,449.5C 478.604,449.201 480.604,449.534 482.5,450.5C 487.314,453.904 492.647,456.238 498.5,457.5C 496.624,461.768 493.624,463.101 489.5,461.5 Z"/></g>
<g><path style="opacity:1" fill="#f9f9fa" d="M 575.5,461.5 C 583.601,461.906 591.601,463.072 599.5,465C 601.76,465.549 603.426,466.716 604.5,468.5C 604.689,473.543 602.856,473.876 599,469.5C 596.263,470.61 593.429,470.777 590.5,470C 589.107,468.637 587.441,467.804 585.5,467.5C 569.405,466.369 553.239,466.369 537,467.5C 535.833,467.167 534.667,466.833 533.5,466.5C 536.785,465.676 540.118,465.176 543.5,465C 541.699,464.683 541.366,464.016 542.5,463C 553.464,461.752 564.464,461.252 575.5,461.5 Z"/></g>
<g><path style="opacity:1" fill="#4231b4" d="M 363.5,463.5 C 363.649,464.552 363.483,465.552 363,466.5C 360.72,468.614 358.887,470.947 357.5,473.5C 357.918,470.235 359.085,467.235 361,464.5C 361.671,463.748 362.504,463.414 363.5,463.5 Z"/></g>
<g><path style="opacity:1" fill="#e7e6fa" d="M 575.5,461.5 C 564.464,461.252 553.464,461.752 542.5,463C 541.366,464.016 541.699,464.683 543.5,465C 540.118,465.176 536.785,465.676 533.5,466.5C 534.667,466.833 535.833,467.167 537,467.5C 553.239,466.369 569.405,466.369 585.5,467.5C 587.441,467.804 589.107,468.637 590.5,470C 593.429,470.777 596.263,470.61 599,469.5C 602.856,473.876 604.689,473.543 604.5,468.5C 605.5,469.167 606.5,469.833 607.5,470.5C 607.5,471.167 607.5,471.833 607.5,472.5C 607.209,473.649 606.376,474.316 605,474.5C 583.223,467.769 561.056,465.936 538.5,469C 534.555,469.658 530.888,470.825 527.5,472.5C 522.91,472.959 518.577,474.293 514.5,476.5C 508.418,479.537 503.084,483.537 498.5,488.5C 497.761,488.631 497.094,488.464 496.5,488C 498.698,484.977 501.031,482.144 503.5,479.5C 503.833,479.5 504.167,479.5 504.5,479.5C 508.96,475.032 513.96,471.365 519.5,468.5C 523.421,466.422 527.421,464.755 531.5,463.5C 531.833,463.5 532.167,463.5 532.5,463.5C 546.867,460.524 561.2,459.857 575.5,461.5 Z"/></g>
<g><path style="opacity:1" fill="#281fb0" d="M 591.5,444.5 C 592.496,444.414 593.329,444.748 594,445.5C 596.29,448.58 598.457,451.747 600.5,455C 605.846,455.668 610.846,457.334 615.5,460C 618.819,464.143 621.486,468.643 623.5,473.5C 619.843,470.151 616.843,466.151 614.5,461.5C 609.202,458.556 603.536,456.556 597.5,455.5C 595.482,451.823 593.482,448.156 591.5,444.5 Z"/></g>
<g><path style="opacity:1" fill="#2219b1" d="M 468.5,479.5 C 463.559,478.353 458.892,476.52 454.5,474C 448.775,472.819 443.109,471.485 437.5,470C 419.375,468.895 401.375,469.729 383.5,472.5C 409.99,465.077 436.323,465.91 462.5,475C 464.684,476.363 466.684,477.863 468.5,479.5 Z"/></g>
<g><path style="opacity:1" fill="#3327b8" d="M 448.5,463.5 C 458.966,465.046 468.133,469.38 476,476.5C 476.483,477.448 476.649,478.448 476.5,479.5C 472.196,476.343 467.863,473.176 463.5,470C 458.358,467.906 453.358,465.74 448.5,463.5 Z"/></g>
<g><path style="opacity:1" fill="#f3f3f9" d="M 431.5,461.5 C 436.923,461.518 442.256,462.185 447.5,463.5C 447.833,463.5 448.167,463.5 448.5,463.5C 453.358,465.74 458.358,467.906 463.5,470C 467.863,473.176 472.196,476.343 476.5,479.5C 477.167,479.5 477.5,479.833 477.5,480.5C 480.215,483.214 482.549,486.214 484.5,489.5C 484.5,490.167 484.167,490.5 483.5,490.5C 479.318,485.642 474.318,481.976 468.5,479.5C 466.684,477.863 464.684,476.363 462.5,475C 436.323,465.91 409.99,465.077 383.5,472.5C 379.803,473.008 376.136,473.674 372.5,474.5C 373.704,472.266 374.87,469.933 376,467.5C 378.255,465.501 380.755,464.168 383.5,463.5C 387.519,463.354 391.519,463.021 395.5,462.5C 407.485,461.757 419.485,461.424 431.5,461.5 Z"/></g>
<g><path style="opacity:1" fill="#1e18ac" d="M 607.5,472.5 C 609.048,472.821 609.715,473.821 609.5,475.5C 606.15,475.665 602.817,475.498 599.5,475C 586.081,471.319 572.414,469.152 558.5,468.5C 548.064,469.263 537.731,470.596 527.5,472.5C 530.888,470.825 534.555,469.658 538.5,469C 561.056,465.936 583.223,467.769 605,474.5C 606.376,474.316 607.209,473.649 607.5,472.5 Z"/></g>
<g><path style="opacity:1" fill="#2d23b2" d="M 379.5,463.5 C 380.833,463.5 382.167,463.5 383.5,463.5C 380.755,464.168 378.255,465.501 376,467.5C 374.87,469.933 373.704,472.266 372.5,474.5C 376.136,473.674 379.803,473.008 383.5,472.5C 383.03,473.693 382.03,474.36 380.5,474.5C 377.532,475.162 374.532,475.495 371.5,475.5C 371.5,473.833 371.5,472.167 371.5,470.5C 372.874,466.799 375.54,464.465 379.5,463.5 Z"/></g>
<g><path style="opacity:1" fill="#1b15ad" d="M 453.5,479.5 C 446.359,477.206 439.026,476.206 431.5,476.5C 427.681,475.834 423.681,475.501 419.5,475.5C 412.608,475.39 405.942,476.056 399.5,477.5C 392.517,478.617 385.517,479.784 378.5,481C 374.46,481.751 370.793,483.251 367.5,485.5C 367.263,484.209 367.596,483.209 368.5,482.5C 392.889,474.894 417.889,472.394 443.5,475C 446.393,475.631 449.226,476.464 452,477.5C 453.03,477.836 453.53,478.503 453.5,479.5 Z"/></g>
<g><path style="opacity:1" fill="#b5b5f2" d="M 431.5,476.5 C 420.819,476.47 410.152,476.804 399.5,477.5C 405.942,476.056 412.608,475.39 419.5,475.5C 423.681,475.501 427.681,475.834 431.5,476.5 Z"/></g>
<g><path style="opacity:1" fill="#1a14cd" d="M 472.5,466.5 C 476.764,469.091 480.764,472.091 484.5,475.5C 485.521,474.998 485.688,474.332 485,473.5C 483.303,470.98 481.47,468.647 479.5,466.5C 480.552,466.351 481.552,466.517 482.5,467C 487.328,471.315 488.828,476.482 487,482.5C 484.175,481.416 484.008,480.249 486.5,479C 482.777,475.607 478.777,472.607 474.5,470C 473.177,469.184 472.511,468.017 472.5,466.5 Z"/></g>
<g><path style="opacity:1" fill="#231abc" d="M 527.5,472.5 C 525.44,474.148 523.107,475.648 520.5,477C 521.333,477.167 522.167,477.333 523,477.5C 539.019,474.148 555.186,473.148 571.5,474.5C 573.333,474.585 574.666,475.252 575.5,476.5C 553.161,473.04 531.828,476.04 511.5,485.5C 514.001,482.89 517.001,480.723 520.5,479C 519.737,478.056 518.737,477.556 517.5,477.5C 511.24,481.358 504.906,485.024 498.5,488.5C 503.084,483.537 508.418,479.537 514.5,476.5C 518.577,474.293 522.91,472.959 527.5,472.5 Z"/></g>
<g><path style="opacity:1" fill="#2d22b1" d="M 575.5,476.5 C 581.861,476.603 588.194,477.103 594.5,478C 595.056,478.383 595.389,478.883 595.5,479.5C 588.653,478.814 581.986,477.814 575.5,476.5 Z"/></g>
<g><path style="opacity:1" fill="#5049bc" d="M 357.5,473.5 C 357.008,475.819 356.008,477.819 354.5,479.5C 354.031,476.607 355.031,474.607 357.5,473.5 Z"/></g>
<g><path style="opacity:1" fill="#2e26a9" d="M 596.5,479.5 C 599.374,479.451 602.208,479.784 605,480.5C 606.376,480.684 607.209,481.351 607.5,482.5C 603.554,482.118 599.888,481.118 596.5,479.5 Z"/></g>
<g><path style="opacity:1" fill="#483abb" d="M 353.5,481.5 C 353.5,486.167 353.5,490.833 353.5,495.5C 350.833,490.833 350.833,486.167 353.5,481.5 Z"/></g>
<g><path style="opacity:1" fill="#271fb1" d="M 607.5,482.5 C 609.861,482.674 612.194,483.007 614.5,483.5C 615.722,489.422 613.389,492.422 607.5,492.5C 599.932,490.553 592.265,489.053 584.5,488C 583.944,487.617 583.611,487.117 583.5,486.5C 589.671,486.834 595.671,488.001 601.5,490C 605.152,490.499 608.818,490.665 612.5,490.5C 612.5,488.5 612.5,486.5 612.5,484.5C 610.447,484.598 608.78,483.931 607.5,482.5 Z"/></g>
<g><path style="opacity:1" fill="#251bae" d="M 466.5,495.5 C 461.536,494.051 456.869,491.885 452.5,489C 436.32,485.725 419.987,484.725 403.5,486C 392.961,488.041 382.461,490.208 372,492.5C 370.014,492.431 368.514,491.765 367.5,490.5C 380.867,488.66 394.201,486.493 407.5,484C 420.909,483.114 434.242,483.781 447.5,486C 454.452,488.143 460.786,491.309 466.5,495.5 Z"/></g>
<g><path style="opacity:1" fill="#3c30b6" d="M 527.5,488.5 C 522.16,491.503 516.827,494.503 511.5,497.5C 510.323,502.331 507.656,505.997 503.5,508.5C 507.956,497.602 515.956,490.936 527.5,488.5 Z"/></g>
<g><path style="opacity:1" fill="#493db0" d="M 404.5,496.5 C 404.5,496.167 404.5,495.833 404.5,495.5C 416.505,495.333 428.505,495.5 440.5,496C 442.355,496.422 444.189,496.922 446,497.5C 447.03,497.836 447.53,498.503 447.5,499.5C 433.314,496.826 418.981,495.826 404.5,496.5 Z"/></g>
<g><path style="opacity:1" fill="#3022a9" d="M 575.5,496.5 C 564.828,496.333 554.161,496.5 543.5,497C 540.278,497.199 537.278,498.032 534.5,499.5C 532.139,499.674 529.806,500.007 527.5,500.5C 530.606,498.732 533.939,497.232 537.5,496C 550.34,495.173 563.007,495.34 575.5,496.5 Z"/></g>
<g><path style="opacity:1" fill="#1d14ac" d="M 404.5,495.5 C 404.5,495.833 404.5,496.167 404.5,496.5C 397.529,497.627 390.529,498.627 383.5,499.5C 385.562,498.224 387.896,497.39 390.5,497C 395.171,496.462 399.838,495.962 404.5,495.5 Z"/></g>
<g><path style="opacity:1" fill="#271dad" d="M 353.5,495.5 C 355.671,497.802 358.338,499.635 361.5,501C 368.184,501.546 374.851,501.38 381.5,500.5C 374.84,503.143 367.84,503.976 360.5,503C 357.215,501.221 354.882,498.721 353.5,495.5 Z"/></g>
<g><path style="opacity:1" fill="#281fb1" d="M 623.5,473.5 C 627.569,481.238 629.069,489.572 628,498.5C 626.59,499.787 625.09,500.954 623.5,502C 618.167,502.667 612.833,502.667 607.5,502C 596.756,499.83 586.089,497.996 575.5,496.5C 582.175,496.334 588.842,496.5 595.5,497C 604.474,500.388 613.807,501.388 623.5,500C 625.569,498.24 626.569,495.907 626.5,493C 625.446,486.507 624.446,480.007 623.5,473.5 Z"/></g>
<g><path style="opacity:1" fill="#a29de6" d="M 534.5,499.5 C 532.485,500.924 530.152,501.59 527.5,501.5C 527.5,501.167 527.5,500.833 527.5,500.5C 529.806,500.007 532.139,499.674 534.5,499.5 Z"/></g>
<g><path style="opacity:1" fill="#3d30c0" d="M 447.5,499.5 C 450.839,499.89 454.173,500.39 457.5,501C 460.118,503.106 462.118,505.606 463.5,508.5C 461.271,507.945 459.605,506.611 458.5,504.5C 454.647,503.004 450.981,501.338 447.5,499.5 Z"/></g>
<g><path style="opacity:1" fill="#f2f2fa" d="M 575.5,476.5 C 581.986,477.814 588.653,478.814 595.5,479.5C 595.833,479.5 596.167,479.5 596.5,479.5C 599.888,481.118 603.554,482.118 607.5,482.5C 608.78,483.931 610.447,484.598 612.5,484.5C 612.5,486.5 612.5,488.5 612.5,490.5C 608.818,490.665 605.152,490.499 601.5,490C 595.671,488.001 589.671,486.834 583.5,486.5C 568.39,483.288 553.056,482.788 537.5,485C 533.837,485.572 530.503,486.738 527.5,488.5C 515.956,490.936 507.956,497.602 503.5,508.5C 502.508,508.328 501.842,508.662 501.5,509.5C 494.777,512.81 487.777,513.31 480.5,511C 477.375,507.906 474.875,504.406 473,500.5C 471.296,498.627 469.463,496.96 467.5,495.5C 467.167,495.5 466.833,495.5 466.5,495.5C 460.786,491.309 454.452,488.143 447.5,486C 434.242,483.781 420.909,483.114 407.5,484C 394.201,486.493 380.867,488.66 367.5,490.5C 367.5,488.833 367.5,487.167 367.5,485.5C 370.793,483.251 374.46,481.751 378.5,481C 385.517,479.784 392.517,478.617 399.5,477.5C 410.152,476.804 420.819,476.47 431.5,476.5C 439.026,476.206 446.359,477.206 453.5,479.5C 456.989,480.658 460.322,481.991 463.5,483.5C 472.591,488.09 479.591,494.924 484.5,504C 488.358,504.81 492.024,504.643 495.5,503.5C 496.735,503.279 497.735,502.612 498.5,501.5C 501.075,494.928 505.408,489.928 511.5,486.5C 511.5,486.167 511.5,485.833 511.5,485.5C 531.828,476.04 553.161,473.04 575.5,476.5 Z"/></g>
<g><path style="opacity:1" fill="#2d24b5" d="M 511.5,486.5 C 505.408,489.928 501.075,494.928 498.5,501.5C 497.735,502.612 496.735,503.279 495.5,503.5C 497.407,494.593 502.741,488.926 511.5,486.5 Z"/></g>
<g><path style="opacity:1" fill="#362ab2" d="M 583.5,486.5 C 564.699,484.543 546.033,485.21 527.5,488.5C 530.503,486.738 533.837,485.572 537.5,485C 553.056,482.788 568.39,483.288 583.5,486.5 Z"/></g>
<g><path style="opacity:1" fill="#3026b1" d="M 463.5,483.5 C 464.873,483.343 466.207,483.51 467.5,484C 475.513,488.18 481.513,494.347 485.5,502.5C 488.768,503.487 492.102,503.82 495.5,503.5C 492.024,504.643 488.358,504.81 484.5,504C 479.591,494.924 472.591,488.09 463.5,483.5 Z"/></g>
<g><path style="opacity:1" fill="#2c25b3" d="M 503.5,479.5 C 501.031,482.144 498.698,484.977 496.5,488C 497.094,488.464 497.761,488.631 498.5,488.5C 497.828,489.267 496.995,489.934 496,490.5C 495.817,485.156 498.317,481.489 503.5,479.5 Z"/></g>
<g><path style="opacity:1" fill="#2921ae" d="M 468.5,479.5 C 474.318,481.976 479.318,485.642 483.5,490.5C 478.214,487.212 473.214,483.546 468.5,479.5 Z"/></g>
<g><path style="opacity:1" fill="#231cb5" d="M 477.5,480.5 C 482.741,481.691 485.075,484.691 484.5,489.5C 482.549,486.214 480.215,483.214 477.5,480.5 Z"/></g>
<g><path style="opacity:1" fill="#2119b4" d="M 527.5,500.5 C 527.5,500.833 527.5,501.167 527.5,501.5C 524.996,503.144 522.329,504.644 519.5,506C 517.43,509.983 514.763,513.483 511.5,516.5C 513.241,513.03 514.908,509.53 516.5,506C 519.854,503.464 523.521,501.631 527.5,500.5 Z"/></g>
<g><path style="opacity:1" fill="#3327b8" d="M 467.5,495.5 C 469.463,496.96 471.296,498.627 473,500.5C 474.875,504.406 477.375,507.906 480.5,511C 487.777,513.31 494.777,512.81 501.5,509.5C 500.71,510.794 499.71,511.961 498.5,513C 492.141,513.831 485.807,513.664 479.5,512.5C 477.428,510.384 475.262,508.384 473,506.5C 471.629,502.424 469.796,498.758 467.5,495.5 Z"/></g>
<g><path style="opacity:1" fill="#1d14a5" d="M 463.5,509.5 C 464.5,509.5 465.5,509.5 466.5,509.5C 467.833,512.5 469.167,515.5 470.5,518.5C 467.453,516.082 465.12,513.082 463.5,509.5 Z"/></g>
<g><path style="opacity:1" fill="#241baf" d="M 511.5,517.5 C 499.888,527.561 487.221,529.061 473.5,522C 472.29,520.961 471.29,519.794 470.5,518.5C 481.396,525.489 492.729,526.155 504.5,520.5C 506.071,517.907 508.404,516.907 511.5,517.5 Z"/></g>
<g><path style="opacity:1" fill="#3429a3" d="M 700.5,559.5 C 698.229,556.617 696.729,553.284 696,549.5C 693.205,548.217 690.372,548.217 687.5,549.5C 686.401,552.296 685.401,555.129 684.5,558C 684.164,559.03 683.497,559.53 682.5,559.5C 683.884,555.664 684.884,551.664 685.5,547.5C 689.5,547.5 693.5,547.5 697.5,547.5C 699.054,551.302 700.054,555.302 700.5,559.5 Z"/></g>
<g><path style="opacity:1" fill="#251eaa" d="M 287.5,552.5 C 283.895,552.201 280.561,551.035 277.5,549C 270.842,548.5 264.175,548.334 257.5,548.5C 257.918,547.778 258.584,547.278 259.5,547C 269.71,545.119 279.043,546.952 287.5,552.5 Z"/></g>
<g><path style="opacity:1" fill="#1b19a5" d="M 728.5,547.5 C 731.5,547.5 734.5,547.5 737.5,547.5C 737.5,569.5 737.5,591.5 737.5,613.5C 734.5,613.5 731.5,613.5 728.5,613.5C 728.5,591.5 728.5,569.5 728.5,547.5 Z"/></g>
<g><path style="opacity:1" fill="#0502ef" d="M 729.5,549.5 C 731.833,549.5 734.167,549.5 736.5,549.5C 736.667,570.169 736.5,590.836 736,611.5C 734,612.833 732,612.833 730,611.5C 729.5,590.836 729.333,570.169 729.5,549.5 Z"/></g>
<g><path style="opacity:1" fill="#716cca" d="M 351.5,564.5 C 355.981,563.352 360.648,563.185 365.5,564C 366.416,564.278 367.082,564.778 367.5,565.5C 362.213,564.658 356.88,564.324 351.5,564.5 Z"/></g>
<g><path style="opacity:1" fill="#d4d4fb" d="M 621.5,563.5 C 617.818,563.335 614.152,563.501 610.5,564C 609.429,564.852 608.429,565.685 607.5,566.5C 605.983,566.511 604.816,567.177 604,568.5C 603.51,567.207 603.343,565.873 603.5,564.5C 599.5,564.5 595.5,564.5 591.5,564.5C 591.167,564.5 590.833,564.5 590.5,564.5C 598.662,563.628 606.996,562.961 615.5,562.5C 617.696,562.505 619.696,562.838 621.5,563.5 Z"/></g>
<g><path style="opacity:1" fill="#251da3" d="M 263.5,558.5 C 268.937,556.719 274.103,557.385 279,560.5C 280.128,562.345 280.628,564.345 280.5,566.5C 284.5,566.5 288.5,566.5 292.5,566.5C 292.5,564.167 292.5,561.833 292.5,559.5C 294.223,561.78 294.889,564.447 294.5,567.5C 289.5,567.5 284.5,567.5 279.5,567.5C 279.358,564.383 278.024,561.883 275.5,560C 271.605,558.734 267.605,558.234 263.5,558.5 Z"/></g>
<g><path style="opacity:1" fill="#6b63c6" d="M 351.5,564.5 C 349.491,566.065 347.157,567.065 344.5,567.5C 346.32,565.552 348.654,564.552 351.5,564.5 Z"/></g>
<g><path style="opacity:1" fill="#5653b7" d="M 414.5,564.5 C 415.919,563.549 417.585,563.216 419.5,563.5C 419.5,568.167 419.5,572.833 419.5,577.5C 418.167,577.5 416.833,577.5 415.5,577.5C 416.209,576.596 417.209,576.263 418.5,576.5C 418.5,572.5 418.5,568.5 418.5,564.5C 417.167,564.5 415.833,564.5 414.5,564.5 Z"/></g>
<g><path style="opacity:1" fill="#3226b0" d="M 479.5,565.5 C 468.298,562.47 458.631,564.97 450.5,573C 449.552,573.483 448.552,573.649 447.5,573.5C 456.234,563.353 466.901,560.687 479.5,565.5 Z"/></g>
<g><path style="opacity:1" fill="#0503f5" d="M 549.5,611.5 C 544.762,611.913 540.262,611.247 536,609.5C 533.968,609.858 532.134,610.692 530.5,612C 524.02,612.848 517.687,612.348 511.5,610.5C 509.668,609.752 508.001,608.752 506.5,607.5C 504.169,603.49 502.336,599.157 501,594.5C 499.648,587.371 500.815,580.705 504.5,574.5C 507.263,572.404 509.597,570.07 511.5,567.5C 515.677,566.942 519.844,566.276 524,565.5C 528.158,565.887 532.158,566.887 536,568.5C 540.262,566.753 544.762,566.087 549.5,566.5C 549.5,581.5 549.5,596.5 549.5,611.5 Z"/></g>
<g><path style="opacity:1" fill="#0502f8" d="M 634.5,579.5 C 634.5,589.833 634.5,600.167 634.5,610.5C 631.833,610.5 629.167,610.5 626.5,610.5C 626.666,600.494 626.5,590.494 626,580.5C 623.5,578.667 621.333,576.5 619.5,574C 618,573.833 616.5,573.667 615,573.5C 613.014,573.569 611.514,574.235 610.5,575.5C 606.596,575.061 604.096,576.728 603,580.5C 602.5,590.828 602.334,601.161 602.5,611.5C 602.167,611.5 601.833,611.5 601.5,611.5C 598.813,611.664 596.146,611.497 593.5,611C 593.043,610.586 592.709,610.086 592.5,609.5C 593.201,595.18 593.867,580.847 594.5,566.5C 596.924,566.192 599.257,566.526 601.5,567.5C 604.306,575.507 606.306,575.174 607.5,566.5C 613.894,565.113 620.228,565.28 626.5,567C 631.552,569.596 634.218,573.762 634.5,579.5 Z"/></g>
<g><path style="opacity:1" fill="#2a1fa7" d="M 254.5,549.5 C 246.696,556.47 244.03,565.136 246.5,575.5C 244.2,570.081 243.867,564.415 245.5,558.5C 247.5,554.5 250.5,551.5 254.5,549.5 Z"/></g>
<g><path style="opacity:1" fill="#0503f6" d="M 479.5,565.5 C 479.5,566.5 479.5,567.5 479.5,568.5C 481.308,568.491 482.975,568.991 484.5,570C 486.416,572.09 488.416,573.923 490.5,575.5C 491.81,580.743 492.476,586.077 492.5,591.5C 480.322,591.172 468.322,591.505 456.5,592.5C 456.5,593.833 456.5,595.167 456.5,596.5C 457.926,601.405 461.26,604.238 466.5,605C 468.833,605.667 471.167,605.667 473.5,605C 476.72,603.223 480.053,601.723 483.5,600.5C 485.774,600.97 487.774,601.97 489.5,603.5C 486.399,606.943 483.066,609.943 479.5,612.5C 473.491,612.666 467.491,612.499 461.5,612C 458.339,610.007 455.006,608.507 451.5,607.5C 451.167,607.5 450.833,607.5 450.5,607.5C 451.025,600.062 452.691,599.729 455.5,606.5C 455.833,606 456.167,605.5 456.5,605C 454.803,601.875 452.636,599.042 450,596.5C 449.781,597.938 449.281,599.271 448.5,600.5C 447.338,598.176 446.171,595.842 445,593.5C 444.921,587.374 445.755,581.374 447.5,575.5C 447.5,574.833 447.5,574.167 447.5,573.5C 448.552,573.649 449.552,573.483 450.5,573C 458.631,564.97 468.298,562.47 479.5,565.5 Z"/></g>
<g><path style="opacity:1" fill="#0402f6" d="M 319.5,561.5 C 319.5,562.5 319.5,563.5 319.5,564.5C 322.625,565.479 325.958,565.813 329.5,565.5C 329.5,568.167 329.5,570.833 329.5,573.5C 325.671,572.931 322.337,573.598 319.5,575.5C 318.176,579.107 317.509,583.107 317.5,587.5C 314.556,598.519 318.556,603.852 329.5,603.5C 329.5,606.167 329.5,608.833 329.5,611.5C 323.346,611.822 317.346,611.155 311.5,609.5C 310.821,606.293 309.654,603.293 308,600.5C 307.5,591.506 307.334,582.506 307.5,573.5C 302.094,574.265 300.094,571.931 301.5,566.5C 303.467,566.739 305.301,566.406 307,565.5C 307.499,561.514 307.666,557.514 307.5,553.5C 310.833,553.5 314.167,553.5 317.5,553.5C 316.964,556.698 317.631,559.365 319.5,561.5 Z"/></g>
<g><path style="opacity:1" fill="#201aac" d="M 479.5,565.5 C 484.462,567.464 488.129,570.798 490.5,575.5C 488.416,573.923 486.416,572.09 484.5,570C 482.975,568.991 481.308,568.491 479.5,568.5C 479.5,567.5 479.5,566.5 479.5,565.5 Z"/></g>
<g><path style="opacity:1" fill="#271ebb" d="M 682.5,559.5 C 681.884,565.348 679.884,570.681 676.5,575.5C 677.973,570.537 679.473,565.537 681,560.5C 681.383,559.944 681.883,559.611 682.5,559.5 Z"/></g>
<g><path style="opacity:1" fill="#8e8ee2" d="M 584.5,576.5 C 584.5,572.5 584.5,568.5 584.5,564.5C 582.097,564.448 579.764,564.781 577.5,565.5C 577.611,564.883 577.944,564.383 578.5,564C 580.81,563.503 583.143,563.337 585.5,563.5C 585.818,568.032 585.485,572.366 584.5,576.5 Z"/></g>
<g><path style="opacity:1" fill="#0502f5" d="M 367.5,566.5 C 369.475,569.121 371.475,568.954 373.5,566C 377.091,565.211 380.591,565.378 384,566.5C 384.667,581.5 384.667,596.5 384,611.5C 378.945,612.452 374.111,612.452 369.5,611.5C 368.833,611.5 368.167,611.5 367.5,611.5C 362.187,612.362 356.854,612.529 351.5,612C 348.264,610.214 344.93,608.714 341.5,607.5C 341.167,607.5 340.833,607.5 340.5,607.5C 340.436,603.781 338.769,601.114 335.5,599.5C 334.221,592.495 334.221,585.495 335.5,578.5C 339.307,574.865 343.307,571.365 347.5,568C 354.013,565.352 360.68,564.852 367.5,566.5 Z"/></g>
<g><path style="opacity:1" fill="#6964c6" d="M 343.5,568.5 C 341.5,571.167 339.167,573.5 336.5,575.5C 337.833,572.167 340.167,569.833 343.5,568.5 Z"/></g>
<g><path style="opacity:1" fill="#1c17be" d="M 479.5,578.5 C 474.848,574.951 469.515,573.618 463.5,574.5C 465.223,573.2 467.39,572.533 470,572.5C 475.463,571.159 478.629,573.159 479.5,578.5 Z"/></g>
<g><path style="opacity:1" fill="#3f3a8b" d="M 590.5,564.5 C 590.833,564.5 591.167,564.5 591.5,564.5C 591.5,580.5 591.5,596.5 591.5,612.5C 595.042,612.813 598.375,612.479 601.5,611.5C 601.833,611.5 602.167,611.5 602.5,611.5C 603.167,601.5 603.833,591.5 604.5,581.5C 604.5,592.167 604.5,602.833 604.5,613.5C 599.833,613.5 595.167,613.5 590.5,613.5C 590.5,597.167 590.5,580.833 590.5,564.5 Z"/></g>
<g><path style="opacity:1" fill="#2a1dc3" d="M 319.5,561.5 C 317.631,559.365 316.964,556.698 317.5,553.5C 314.167,553.5 310.833,553.5 307.5,553.5C 307.666,557.514 307.499,561.514 307,565.5C 305.301,566.406 303.467,566.739 301.5,566.5C 300.094,571.931 302.094,574.265 307.5,573.5C 307.334,582.506 307.5,591.506 308,600.5C 309.654,603.293 310.821,606.293 311.5,609.5C 310.624,609.631 309.957,609.298 309.5,608.5C 307.949,605.641 306.949,602.641 306.5,599.5C 306.5,591.5 306.5,583.5 306.5,575.5C 304.167,575.5 301.833,575.5 299.5,575.5C 299.5,571.833 299.5,568.167 299.5,564.5C 301.735,564.795 303.735,564.461 305.5,563.5C 305.5,559.5 305.5,555.5 305.5,551.5C 310.167,551.5 314.833,551.5 319.5,551.5C 319.5,554.833 319.5,558.167 319.5,561.5 Z"/></g>
<g><path style="opacity:1" fill="#0d09b2" d="M 351.5,564.5 C 356.88,564.324 362.213,564.658 367.5,565.5C 367.5,565.833 367.5,566.167 367.5,566.5C 360.68,564.852 354.013,565.352 347.5,568C 343.307,571.365 339.307,574.865 335.5,578.5C 335.557,577.391 335.89,576.391 336.5,575.5C 339.167,573.5 341.5,571.167 343.5,568.5C 343.5,567.833 343.833,567.5 344.5,567.5C 347.157,567.065 349.491,566.065 351.5,564.5 Z"/></g>
<g><path style="opacity:1" fill="#130ebe" d="M 319.5,564.5 C 323.5,564.5 327.5,564.5 331.5,564.5C 331.5,568.167 331.5,571.833 331.5,575.5C 327.5,575.5 323.5,575.5 319.5,575.5C 322.337,573.598 325.671,572.931 329.5,573.5C 329.5,570.833 329.5,568.167 329.5,565.5C 325.958,565.813 322.625,565.479 319.5,564.5 Z"/></g>
<g><path style="opacity:1" fill="#1e1899" d="M 369.5,611.5 C 374.111,612.452 378.945,612.452 384,611.5C 384.667,596.5 384.667,581.5 384,566.5C 380.591,565.378 377.091,565.211 373.5,566C 371.475,568.954 369.475,569.121 367.5,566.5C 373.36,564.902 379.36,564.235 385.5,564.5C 385.5,580.833 385.5,597.167 385.5,613.5C 379.942,613.943 374.609,613.276 369.5,611.5 Z"/></g>
<g><path style="opacity:1" fill="#f1f1fb" d="M 463.5,574.5 C 469.515,573.618 474.848,574.951 479.5,578.5C 479.5,579.167 479.5,579.833 479.5,580.5C 472.576,582.463 465.243,583.13 457.5,582.5C 457.961,579.697 459.295,577.363 461.5,575.5C 462.492,575.672 463.158,575.338 463.5,574.5 Z"/></g>
<g><path style="opacity:1" fill="#130ec4" d="M 529.5,564.5 C 532.073,565.219 534.573,566.219 537,567.5C 537.483,566.552 537.649,565.552 537.5,564.5C 541.833,564.5 546.167,564.5 550.5,564.5C 550.83,580.342 550.496,596.009 549.5,611.5C 549.5,596.5 549.5,581.5 549.5,566.5C 544.762,566.087 540.262,566.753 536,568.5C 532.158,566.887 528.158,565.887 524,565.5C 519.844,566.276 515.677,566.942 511.5,567.5C 511.5,567.167 511.5,566.833 511.5,566.5C 517.346,564.845 523.346,564.178 529.5,564.5 Z"/></g>
<g><path style="opacity:1" fill="#4441b2" d="M 550.5,564.5 C 551.496,580.325 551.83,596.325 551.5,612.5C 549.359,613.163 547.025,613.497 544.5,613.5C 541.731,613.471 539.397,612.805 537.5,611.5C 541.601,612.791 545.601,612.791 549.5,611.5C 550.496,596.009 550.83,580.342 550.5,564.5 Z"/></g>
<g><path style="opacity:1" fill="#1511a6" d="M 577.5,565.5 C 579.764,564.781 582.097,564.448 584.5,564.5C 584.5,568.5 584.5,572.5 584.5,576.5C 582.139,576.674 579.806,577.007 577.5,577.5C 578.78,576.069 580.447,575.402 582.5,575.5C 582.5,572.5 582.5,569.5 582.5,566.5C 581.127,566.343 579.793,566.51 578.5,567C 575.989,568.848 573.489,570.681 571,572.5C 569.174,570.733 568.007,568.566 567.5,566C 564.571,565.223 561.737,565.39 559,566.5C 558.333,580.833 558.333,595.167 559,609.5C 562.149,611.362 565.649,612.029 569.5,611.5C 569.174,602.983 569.507,594.65 570.5,586.5C 570.5,595.5 570.5,604.5 570.5,613.5C 566.167,613.5 561.833,613.5 557.5,613.5C 557.5,597.167 557.5,580.833 557.5,564.5C 561.833,564.5 566.167,564.5 570.5,564.5C 570.34,566.199 570.506,567.866 571,569.5C 573.069,567.915 575.236,566.581 577.5,565.5 Z"/></g>
<g><path style="opacity:1" fill="#cbcaf3" d="M 365.5,576.5 C 366.167,577.167 366.833,577.833 367.5,578.5C 368.925,579.922 369.925,581.589 370.5,583.5C 368.122,582.108 366.122,580.275 364.5,578C 360.113,577.294 355.78,577.46 351.5,578.5C 352.058,577.21 353.058,576.377 354.5,576C 358.188,575.55 361.854,575.717 365.5,576.5 Z"/></g>
<g><path style="opacity:1" fill="#3127b2" d="M 521.5,575.5 C 519.727,576.892 517.727,578.059 515.5,579C 514.303,581.015 512.97,582.849 511.5,584.5C 512.334,578.663 515.668,575.663 521.5,575.5 Z"/></g>
<g><path style="opacity:1" fill="#0503f3" d="M 577.5,577.5 C 574.023,579.64 571.689,582.64 570.5,586.5C 569.507,594.65 569.174,602.983 569.5,611.5C 565.649,612.029 562.149,611.362 559,609.5C 558.333,595.167 558.333,580.833 559,566.5C 561.737,565.39 564.571,565.223 567.5,566C 568.007,568.566 569.174,570.733 571,572.5C 573.489,570.681 575.989,568.848 578.5,567C 579.793,566.51 581.127,566.343 582.5,566.5C 582.5,569.5 582.5,572.5 582.5,575.5C 580.447,575.402 578.78,576.069 577.5,577.5 Z"/></g>
<g><path style="opacity:1" fill="#0805f1" d="M 700.5,559.5 C 702.479,563.03 704.312,566.696 706,570.5C 706.494,572.134 706.66,573.801 706.5,575.5C 707.092,579.885 708.592,583.885 711,587.5C 712.574,594.951 715.407,601.618 719.5,607.5C 719.5,608.833 719.5,610.167 719.5,611.5C 717.167,611.5 714.833,611.5 712.5,611.5C 711.832,606.328 710.165,601.495 707.5,597C 696.833,596.333 686.167,596.333 675.5,597C 672.651,601.048 671.317,605.548 671.5,610.5C 671.5,611.167 671.5,611.833 671.5,612.5C 669.143,612.663 666.81,612.497 664.5,612C 663.978,611.439 663.645,610.772 663.5,610C 666.796,604.278 668.796,598.111 669.5,591.5C 671.838,586.11 674.172,580.776 676.5,575.5C 679.884,570.681 681.884,565.348 682.5,559.5C 683.497,559.53 684.164,559.03 684.5,558C 685.401,555.129 686.401,552.296 687.5,549.5C 690.372,548.217 693.205,548.217 696,549.5C 696.729,553.284 698.229,556.617 700.5,559.5 Z"/></g>
<g><path style="opacity:1" fill="#f1f1fa" d="M 694.5,564.5 C 695.065,568.537 696.399,572.203 698.5,575.5C 699.596,580.132 701.263,584.466 703.5,588.5C 703.5,589.167 703.5,589.833 703.5,590.5C 695.472,590.831 687.472,590.498 679.5,589.5C 683.31,579.398 687.31,569.398 691.5,559.5C 692.325,561.36 693.325,563.026 694.5,564.5 Z"/></g>
<g><path style="opacity:1" fill="#1d16a3" d="M 694.5,564.5 C 697,567.66 698.333,571.327 698.5,575.5C 696.399,572.203 695.065,568.537 694.5,564.5 Z"/></g>
<g><path style="opacity:1" fill="#1912bb" d="M 694.5,564.5 C 693.325,563.026 692.325,561.36 691.5,559.5C 687.31,569.398 683.31,579.398 679.5,589.5C 687.472,590.498 695.472,590.831 703.5,590.5C 695.016,591.493 686.349,591.826 677.5,591.5C 677.337,589.143 677.503,586.81 678,584.5C 682.063,579.875 684.23,573.875 684.5,566.5C 685.5,566.5 686.5,566.5 687.5,566.5C 688.213,563.763 688.213,561.096 687.5,558.5C 690.167,557.167 692.833,557.167 695.5,558.5C 694.652,560.409 694.318,562.409 694.5,564.5 Z"/></g>
<g><path style="opacity:1" fill="#cbc8f5" d="M 245.5,558.5 C 243.867,564.415 244.2,570.081 246.5,575.5C 247.11,576.391 247.443,577.391 247.5,578.5C 245.876,578.64 244.71,577.973 244,576.5C 243.333,571.5 243.333,566.5 244,561.5C 244.232,560.263 244.732,559.263 245.5,558.5 Z"/></g>
<g><path style="opacity:1" fill="#fafafb" d="M 370.5,583.5 C 373.231,593.635 369.398,599.968 359,602.5C 356.456,601.929 353.956,601.262 351.5,600.5C 345.856,594.323 345.023,587.323 349,579.5C 349.671,578.748 350.504,578.414 351.5,578.5C 355.78,577.46 360.113,577.294 364.5,578C 366.122,580.275 368.122,582.108 370.5,583.5 Z"/></g>
<g><path style="opacity:1" fill="#281ead" d="M 511.5,567.5 C 509.597,570.07 507.263,572.404 504.5,574.5C 500.815,580.705 499.648,587.371 501,594.5C 502.336,599.157 504.169,603.49 506.5,607.5C 495.584,594.148 495.917,581.148 507.5,568.5C 508.833,568.167 510.167,567.833 511.5,567.5 Z"/></g>
<g><path style="opacity:1" fill="#1b14ad" d="M 698.5,575.5 C 701.515,579.196 703.182,583.53 703.5,588.5C 701.263,584.466 699.596,580.132 698.5,575.5 Z"/></g>
<g><path style="opacity:1" fill="#3426bf" d="M 365.5,576.5 C 361.854,575.717 358.188,575.55 354.5,576C 353.058,576.377 352.058,577.21 351.5,578.5C 350.504,578.414 349.671,578.748 349,579.5C 345.023,587.323 345.856,594.323 351.5,600.5C 347.93,600.099 345.764,598.099 345,594.5C 342.44,584.793 345.607,577.96 354.5,574C 358.734,572.952 362.4,573.785 365.5,576.5 Z"/></g>
<g><path style="opacity:1" fill="#0c08d7" d="M 591.5,564.5 C 595.5,564.5 599.5,564.5 603.5,564.5C 603.343,565.873 603.51,567.207 604,568.5C 604.816,567.177 605.983,566.511 607.5,566.5C 606.306,575.174 604.306,575.507 601.5,567.5C 599.257,566.526 596.924,566.192 594.5,566.5C 593.867,580.847 593.201,595.18 592.5,609.5C 592.709,610.086 593.043,610.586 593.5,611C 596.146,611.497 598.813,611.664 601.5,611.5C 598.375,612.479 595.042,612.813 591.5,612.5C 591.5,596.5 591.5,580.5 591.5,564.5 Z"/></g>
<g><path style="opacity:1" fill="#2e22ab" d="M 246.5,575.5 C 250.146,577.482 253.146,580.149 255.5,583.5C 254.448,583.649 253.448,583.483 252.5,583C 250.963,581.293 249.296,579.793 247.5,578.5C 247.443,577.391 247.11,576.391 246.5,575.5 Z"/></g>
<g><path style="opacity:1" fill="#8989e2" d="M 305.5,563.5 C 303.735,564.461 301.735,564.795 299.5,564.5C 299.5,568.167 299.5,571.833 299.5,575.5C 301.833,575.5 304.167,575.5 306.5,575.5C 306.5,583.5 306.5,591.5 306.5,599.5C 305.508,592.018 305.175,584.352 305.5,576.5C 303.167,576.5 300.833,576.5 298.5,576.5C 298.5,572.167 298.5,567.833 298.5,563.5C 300.833,563.5 303.167,563.5 305.5,563.5 Z"/></g>
<g><path style="opacity:1" fill="#eaecfd" d="M 551.5,612.5 C 551.83,596.325 551.496,580.325 550.5,564.5C 546.167,564.5 541.833,564.5 537.5,564.5C 537.649,565.552 537.483,566.552 537,567.5C 534.573,566.219 532.073,565.219 529.5,564.5C 525.354,563.353 521.02,563.186 516.5,564C 514.509,564.374 512.842,565.207 511.5,566.5C 511.5,566.833 511.5,567.167 511.5,567.5C 510.167,567.833 508.833,568.167 507.5,568.5C 507.539,567.417 507.873,566.417 508.5,565.5C 512.181,563.743 516.014,562.41 520,561.5C 530.624,563.075 541.457,563.741 552.5,563.5C 552.83,580.009 552.496,596.342 551.5,612.5 Z"/></g>
<g><path style="opacity:1" fill="#5a57ba" d="M 529.5,564.5 C 523.346,564.178 517.346,564.845 511.5,566.5C 512.842,565.207 514.509,564.374 516.5,564C 521.02,563.186 525.354,563.353 529.5,564.5 Z"/></g>
<g><path style="opacity:1" fill="#3d32af" d="M 255.5,583.5 C 257.781,583.077 259.448,583.744 260.5,585.5C 258.302,585.88 256.635,585.213 255.5,583.5 Z"/></g>
<g><path style="opacity:1" fill="#0704f5" d="M 257.5,548.5 C 264.175,548.334 270.842,548.5 277.5,549C 280.561,551.035 283.895,552.201 287.5,552.5C 288.315,553.837 289.482,554.837 291,555.5C 291.21,557.058 291.71,558.391 292.5,559.5C 292.5,561.833 292.5,564.167 292.5,566.5C 288.5,566.5 284.5,566.5 280.5,566.5C 280.628,564.345 280.128,562.345 279,560.5C 274.103,557.385 268.937,556.719 263.5,558.5C 259.561,560.028 257.895,563.028 258.5,567.5C 258.238,568.978 258.571,570.311 259.5,571.5C 262.704,572.168 265.371,573.668 267.5,576C 276.759,575.863 284.926,578.697 292,584.5C 293.057,587.207 293.557,590.04 293.5,593C 293.402,598.099 292.402,602.932 290.5,607.5C 290.027,608.906 289.027,609.573 287.5,609.5C 281.583,611.739 275.417,613.072 269,613.5C 264.853,612.877 260.686,612.544 256.5,612.5C 255.833,612.5 255.5,612.167 255.5,611.5C 253.321,608.723 250.654,606.39 247.5,604.5C 246.242,601.306 245.576,597.973 245.5,594.5C 248.85,594.335 252.183,594.502 255.5,595C 256.283,597.118 257.616,598.618 259.5,599.5C 260.031,601.624 261.365,603.124 263.5,604C 268.167,604.667 272.833,604.667 277.5,604C 282.153,601.058 283.653,596.891 282,591.5C 275.418,587.562 268.251,585.562 260.5,585.5C 259.448,583.744 257.781,583.077 255.5,583.5C 253.146,580.149 250.146,577.482 246.5,575.5C 244.03,565.136 246.696,556.47 254.5,549.5C 255.391,548.89 256.391,548.557 257.5,548.5 Z"/></g>
<g><path style="opacity:1" fill="#110ccf" d="M 461.5,575.5 C 459.295,577.363 457.961,579.697 457.5,582.5C 464.982,583.492 472.648,583.825 480.5,583.5C 480.737,582.209 480.404,581.209 479.5,580.5C 479.5,579.833 479.5,579.167 479.5,578.5C 482.592,579.495 483.259,581.495 481.5,584.5C 473.187,585.665 464.853,585.832 456.5,585C 454.874,580.105 456.541,576.938 461.5,575.5 Z"/></g>
<g><path style="opacity:1" fill="#9293f2" d="M 479.5,580.5 C 480.404,581.209 480.737,582.209 480.5,583.5C 472.648,583.825 464.982,583.492 457.5,582.5C 465.243,583.13 472.576,582.463 479.5,580.5 Z"/></g>
<g><path style="opacity:1" fill="#2c22b4" d="M 527.5,575.5 C 532.76,575.9 536.594,578.567 539,583.5C 541.021,599.144 534.187,605.644 518.5,603C 515.507,601.841 513.84,599.675 513.5,596.5C 522.386,605.113 530.22,604.113 537,593.5C 538.472,587.924 537.305,583.091 533.5,579C 531.09,578.4 529.09,577.234 527.5,575.5 Z"/></g>
<g><path style="opacity:1" fill="#1813aa" d="M 404.5,568.5 C 403.733,567.828 403.066,566.995 402.5,566C 399.183,565.502 395.85,565.335 392.5,565.5C 392.5,581.167 392.5,596.833 392.5,612.5C 396.106,612.789 399.606,612.456 403,611.5C 403.333,602.167 403.667,592.833 404,583.5C 406.582,577.625 411.082,574.958 417.5,575.5C 417.5,572.167 417.5,568.833 417.5,565.5C 416.127,565.343 414.793,565.51 413.5,566C 411.067,567.632 408.567,569.132 406,570.5C 405.235,570.43 404.735,570.097 404.5,569.5C 407.889,567.737 411.222,566.07 414.5,564.5C 415.833,564.5 417.167,564.5 418.5,564.5C 418.5,568.5 418.5,572.5 418.5,576.5C 417.209,576.263 416.209,576.596 415.5,577.5C 409.727,577.769 406.227,580.769 405,586.5C 404.5,595.494 404.334,604.494 404.5,613.5C 400.167,613.5 395.833,613.5 391.5,613.5C 391.5,597.167 391.5,580.833 391.5,564.5C 395.833,564.5 400.167,564.5 404.5,564.5C 404.5,565.833 404.5,567.167 404.5,568.5 Z"/></g>
<g><path style="opacity:1" fill="#0502f6" d="M 404.5,568.5 C 404.5,568.833 404.5,569.167 404.5,569.5C 404.735,570.097 405.235,570.43 406,570.5C 408.567,569.132 411.067,567.632 413.5,566C 414.793,565.51 416.127,565.343 417.5,565.5C 417.5,568.833 417.5,572.167 417.5,575.5C 411.082,574.958 406.582,577.625 404,583.5C 403.667,592.833 403.333,602.167 403,611.5C 399.606,612.456 396.106,612.789 392.5,612.5C 392.5,596.833 392.5,581.167 392.5,565.5C 395.85,565.335 399.183,565.502 402.5,566C 403.066,566.995 403.733,567.828 404.5,568.5 Z"/></g>
<g><path style="opacity:1" fill="#0c07d4" d="M 634.5,579.5 C 635.494,589.987 635.828,600.654 635.5,611.5C 631.881,612.244 628.215,612.577 624.5,612.5C 624.827,602.652 624.494,592.986 623.5,583.5C 621.707,577.088 617.373,574.422 610.5,575.5C 611.514,574.235 613.014,573.569 615,573.5C 616.5,573.667 618,573.833 619.5,574C 621.333,576.5 623.5,578.667 626,580.5C 626.5,590.494 626.666,600.494 626.5,610.5C 629.167,610.5 631.833,610.5 634.5,610.5C 634.5,600.167 634.5,589.833 634.5,579.5 Z"/></g>
<g><path style="opacity:1" fill="#281bc0" d="M 258.5,567.5 C 260.34,569.168 262.34,570.668 264.5,572C 271.545,573.845 278.545,575.845 285.5,578C 298.248,585.878 299.915,595.711 290.5,607.5C 292.402,602.932 293.402,598.099 293.5,593C 293.557,590.04 293.057,587.207 292,584.5C 284.926,578.697 276.759,575.863 267.5,576C 265.371,573.668 262.704,572.168 259.5,571.5C 258.571,570.311 258.238,568.978 258.5,567.5 Z"/></g>
<g><path style="opacity:1" fill="#2d1eb1" d="M 490.5,575.5 C 494.191,580.752 495.191,586.419 493.5,592.5C 481.167,592.5 468.833,592.5 456.5,592.5C 468.322,591.505 480.322,591.172 492.5,591.5C 492.476,586.077 491.81,580.743 490.5,575.5 Z"/></g>
<g><path style="opacity:1" fill="#fafaf9" d="M 521.5,575.5 C 523.5,575.5 525.5,575.5 527.5,575.5C 529.09,577.234 531.09,578.4 533.5,579C 537.305,583.091 538.472,587.924 537,593.5C 530.22,604.113 522.386,605.113 513.5,596.5C 511.857,592.7 511.19,588.7 511.5,584.5C 512.97,582.849 514.303,581.015 515.5,579C 517.727,578.059 519.727,576.892 521.5,575.5 Z"/></g>
<g><path style="opacity:1" fill="#3d30c3" d="M 621.5,563.5 C 629.21,564.921 634.377,569.254 637,576.5C 637.5,588.829 637.667,601.162 637.5,613.5C 632.833,613.5 628.167,613.5 623.5,613.5C 623.5,603.5 623.5,593.5 623.5,583.5C 624.494,592.986 624.827,602.652 624.5,612.5C 628.215,612.577 631.881,612.244 635.5,611.5C 635.828,600.654 635.494,589.987 634.5,579.5C 634.218,573.762 631.552,569.596 626.5,567C 620.228,565.28 613.894,565.113 607.5,566.5C 608.429,565.685 609.429,564.852 610.5,564C 614.152,563.501 617.818,563.335 621.5,563.5 Z"/></g>
<g><path style="opacity:1" fill="#4f4bad" d="M 259.5,597.5 C 257.896,596.713 257.229,595.38 257.5,593.5C 253.167,593.5 248.833,593.5 244.5,593.5C 244.5,595.5 244.5,597.5 244.5,599.5C 243.532,597.393 243.198,595.059 243.5,592.5C 248.5,592.5 253.5,592.5 258.5,592.5C 258.629,594.216 258.962,595.883 259.5,597.5 Z"/></g>
<g><path style="opacity:1" fill="#231ba3" d="M 335.5,578.5 C 334.221,585.495 334.221,592.495 335.5,599.5C 331.639,592.456 331.639,585.456 335.5,578.5 Z"/></g>
<g><path style="opacity:1" fill="#9a99fb" d="M 456.5,592.5 C 468.833,592.5 481.167,592.5 493.5,592.5C 481.678,593.495 469.678,593.828 457.5,593.5C 457.5,594.5 457.5,595.5 457.5,596.5C 457.167,596.5 456.833,596.5 456.5,596.5C 456.5,595.167 456.5,593.833 456.5,592.5 Z"/></g>
<g><path style="opacity:1" fill="#e9eafd" d="M 438.5,547.5 C 439.221,560.345 439.888,573.345 440.5,586.5C 439.02,589.913 439.186,593.247 441,596.5C 441.012,591.212 441.845,586.212 443.5,581.5C 442.392,590.492 444.059,598.825 448.5,606.5C 447.178,606.67 446.011,606.337 445,605.5C 444.229,602.81 443.396,600.144 442.5,597.5C 441.833,598.5 441.167,599.5 440.5,600.5C 439.833,604.313 439.166,607.979 438.5,611.5C 438.5,590.167 438.5,568.833 438.5,547.5 Z"/></g>
<g><path style="opacity:1" fill="#3f31b8" d="M 706.5,575.5 C 711.981,585.587 716.314,596.254 719.5,607.5C 715.407,601.618 712.574,594.951 711,587.5C 708.592,583.885 707.092,579.885 706.5,575.5 Z"/></g>
<g><path style="opacity:1" fill="#2e2a8e" d="M 438.5,547.5 C 438.5,568.833 438.5,590.167 438.5,611.5C 434.285,613.436 429.619,614.103 424.5,613.5C 424.5,591.5 424.5,569.5 424.5,547.5C 429.167,547.5 433.833,547.5 438.5,547.5 Z"/></g>
<g><path style="opacity:1" fill="#0703ae" d="M 436.5,549.5 C 437.497,570.327 437.831,591.327 437.5,612.5C 433.5,612.5 429.5,612.5 425.5,612.5C 425.5,591.167 425.5,569.833 425.5,548.5C 429.371,548.185 433.038,548.518 436.5,549.5 Z"/></g>
<g><path style="opacity:1" fill="#0502f9" d="M 436.5,549.5 C 436.5,570.167 436.5,590.833 436.5,611.5C 433.167,611.5 429.833,611.5 426.5,611.5C 426.5,590.833 426.5,570.167 426.5,549.5C 429.833,549.5 433.167,549.5 436.5,549.5 Z"/></g>
<g><path style="opacity:1" fill="#120bbd" d="M 719.5,611.5 C 717.052,612.473 714.385,612.806 711.5,612.5C 710.327,607.814 708.66,603.314 706.5,599C 696.5,598.333 686.5,598.333 676.5,599C 675.349,603.179 673.682,607.013 671.5,610.5C 671.317,605.548 672.651,601.048 675.5,597C 686.167,596.333 696.833,596.333 707.5,597C 710.165,601.495 711.832,606.328 712.5,611.5C 714.833,611.5 717.167,611.5 719.5,611.5 Z"/></g>
<g><path style="opacity:1" fill="#4535be" d="M 367.5,578.5 C 368.552,578.351 369.552,578.517 370.5,579C 377.722,596.113 372.055,604.113 353.5,603C 352.244,602.583 351.577,601.75 351.5,600.5C 353.956,601.262 356.456,601.929 359,602.5C 369.398,599.968 373.231,593.635 370.5,583.5C 369.925,581.589 368.925,579.922 367.5,578.5 Z"/></g>
<g><path style="opacity:1" fill="#1611bb" d="M 610.5,575.5 C 608.194,577.139 606.194,579.139 604.5,581.5C 603.833,591.5 603.167,601.5 602.5,611.5C 602.334,601.161 602.5,590.828 603,580.5C 604.096,576.728 606.596,575.061 610.5,575.5 Z"/></g>
<g><path style="opacity:1" fill="#110da8" d="M 259.5,597.5 C 259.5,598.167 259.5,598.833 259.5,599.5C 257.616,598.618 256.283,597.118 255.5,595C 252.183,594.502 248.85,594.335 245.5,594.5C 245.576,597.973 246.242,601.306 247.5,604.5C 246.263,603.035 245.263,601.368 244.5,599.5C 244.5,597.5 244.5,595.5 244.5,593.5C 248.833,593.5 253.167,593.5 257.5,593.5C 257.229,595.38 257.896,596.713 259.5,597.5 Z"/></g>
<g><path style="opacity:1" fill="#1e14d8" d="M 447.5,575.5 C 445.755,581.374 444.921,587.374 445,593.5C 446.171,595.842 447.338,598.176 448.5,600.5C 449.281,599.271 449.781,597.938 450,596.5C 452.636,599.042 454.803,601.875 456.5,605C 456.167,605.5 455.833,606 455.5,606.5C 452.691,599.729 451.025,600.062 450.5,607.5C 449.833,607.167 449.167,606.833 448.5,606.5C 444.059,598.825 442.392,590.492 443.5,581.5C 444.306,580.003 444.972,578.336 445.5,576.5C 445.957,575.702 446.624,575.369 447.5,575.5 Z"/></g>
<g><path style="opacity:1" fill="#3329ae" d="M 335.5,599.5 C 338.769,601.114 340.436,603.781 340.5,607.5C 338.007,605.342 336.34,602.676 335.5,599.5 Z"/></g>
<g><path style="opacity:1" fill="#3b2fae" d="M 669.5,591.5 C 668.796,598.111 666.796,604.278 663.5,610C 663.645,610.772 663.978,611.439 664.5,612C 666.81,612.497 669.143,612.663 671.5,612.5C 668.375,613.479 665.042,613.813 661.5,613.5C 663.196,605.738 665.863,598.405 669.5,591.5 Z"/></g>
<g><path style="opacity:1" fill="#291db5" d="M 260.5,585.5 C 268.251,585.562 275.418,587.562 282,591.5C 283.653,596.891 282.153,601.058 277.5,604C 272.833,604.667 268.167,604.667 263.5,604C 261.365,603.124 260.031,601.624 259.5,599.5C 266.269,603.482 273.102,603.482 280,599.5C 282.607,594.991 281.441,591.825 276.5,590C 271.023,588.599 265.689,587.099 260.5,585.5 Z"/></g>
<g><path style="opacity:1" fill="#251bb2" d="M 456.5,596.5 C 456.833,596.5 457.167,596.5 457.5,596.5C 465.327,605.497 473.66,605.831 482.5,597.5C 486.014,598.755 489.014,600.755 491.5,603.5C 488.642,608.025 484.642,611.025 479.5,612.5C 483.066,609.943 486.399,606.943 489.5,603.5C 487.774,601.97 485.774,600.97 483.5,600.5C 480.053,601.723 476.72,603.223 473.5,605C 471.167,605.667 468.833,605.667 466.5,605C 461.26,604.238 457.926,601.405 456.5,596.5 Z"/></g>
<g><path style="opacity:1" fill="#2b23ad" d="M 247.5,604.5 C 250.654,606.39 253.321,608.723 255.5,611.5C 251.605,610.607 248.938,608.274 247.5,604.5 Z"/></g>
<g><path style="opacity:1" fill="#2019b7" d="M 319.5,575.5 C 319.334,583.507 319.5,591.507 320,599.5C 323.327,602.154 327.161,603.154 331.5,602.5C 331.5,606.167 331.5,609.833 331.5,613.5C 326.489,613.666 321.489,613.499 316.5,613C 314.767,611.811 313.1,610.644 311.5,609.5C 317.346,611.155 323.346,611.822 329.5,611.5C 329.5,608.833 329.5,606.167 329.5,603.5C 318.556,603.852 314.556,598.519 317.5,587.5C 317.509,583.107 318.176,579.107 319.5,575.5 Z"/></g>
<g><path style="opacity:1" fill="#1b13ad" d="M 451.5,607.5 C 455.006,608.507 458.339,610.007 461.5,612C 467.491,612.499 473.491,612.666 479.5,612.5C 471.412,615.44 463.412,614.94 455.5,611C 453.907,610.051 452.574,608.885 451.5,607.5 Z"/></g>
<g><path style="opacity:1" fill="#3627b9" d="M 549.5,611.5 C 545.601,612.791 541.601,612.791 537.5,611.5C 537.44,610.957 537.107,610.624 536.5,610.5C 528.084,615.752 519.75,615.752 511.5,610.5C 517.687,612.348 524.02,612.848 530.5,612C 532.134,610.692 533.968,609.858 536,609.5C 540.262,611.247 544.762,611.913 549.5,611.5 Z"/></g>
<g><path style="opacity:1" fill="#2e23ac" d="M 341.5,607.5 C 344.93,608.714 348.264,610.214 351.5,612C 356.854,612.529 362.187,612.362 367.5,611.5C 366.737,612.268 365.737,612.768 364.5,613C 360.179,613.499 355.846,613.666 351.5,613.5C 347.207,613.023 343.873,611.023 341.5,607.5 Z"/></g>
<g><path style="opacity:1" fill="#282296" d="M 719.5,607.5 C 720.738,609.214 721.405,611.214 721.5,613.5C 717.958,613.813 714.625,613.479 711.5,612.5C 714.385,612.806 717.052,612.473 719.5,611.5C 719.5,610.167 719.5,608.833 719.5,607.5 Z"/></g>
<g><path style="opacity:1" fill="#21199f" d="M 287.5,609.5 C 284,612.059 280,613.559 275.5,614C 270.5,614.667 265.5,614.667 260.5,614C 258.942,613.79 257.609,613.29 256.5,612.5C 260.686,612.544 264.853,612.877 269,613.5C 275.417,613.072 281.583,611.739 287.5,609.5 Z"/></g>
<g><path style="opacity:1" fill="#b6b4ef" d="M 367.5,611.5 C 368.167,611.5 368.833,611.5 369.5,611.5C 368.653,612.966 367.32,613.8 365.5,614C 360.648,614.815 355.981,614.648 351.5,613.5C 355.846,613.666 360.179,613.499 364.5,613C 365.737,612.768 366.737,612.268 367.5,611.5 Z"/></g>
</svg>
